<?xml version="1.0" standalone="no"?>
<!DOCTYPE svg PUBLIC "-//W3C//DTD SVG 20010904//EN"
 "http://www.w3.org/TR/2001/REC-SVG-20010904/DTD/svg10.dtd">
<svg version="1.0" xmlns="http://www.w3.org/2000/svg"
 width="1024.000000pt" height="1024.000000pt" viewBox="0 0 1024.000000 1024.000000"
 preserveAspectRatio="xMidYMid meet">
<metadata>
Created by potrace 1.14, written by Peter Selinger 2001-2017
</metadata>
<g transform="translate(0.000000,1024.000000) scale(0.100000,-0.100000)"
fill="#000000" stroke="none">
<path d="M0 5120 l0 -5120 5120 0 5120 0 0 5120 0 5120 -1955 0 -1955 0 0
-246 0 -247 -77 7 c-42 3 -91 6 -110 6 l-33 0 0 240 0 240 -940 0 -940 0 0
-180 0 -180 -44 0 c-38 0 -45 -3 -49 -22 l-4 -23 -2 23 c-1 17 -8 22 -28 23
-24 2 -25 2 -5 6 24 5 22 -13 26 268 l1 80 -37 3 c-29 2 -38 0 -38 -12 0 -9
-5 -16 -11 -16 -7 0 -9 -9 -5 -22 11 -39 14 -258 4 -264 -6 -4 -7 -38 -3 -85
5 -55 4 -79 -4 -79 -8 0 -11 72 -11 240 l0 240 -2010 0 -2010 0 0 -5120z
m1506 5050 l-1 -40 -221 0 -220 0 2 43 c1 23 2 42 3 42 1 0 100 -1 220 -3
l219 -3 -2 -39z m276 39 c2 -6 2 -26 0 -45 l-4 -34 -94 0 -94 0 0 39 0 40 48
4 c102 8 140 7 144 -4z m298 -34 l0 -45 -110 0 -110 0 0 45 0 45 110 0 110 0
0 -45z m937 27 c1 -4 4 -19 7 -34 3 -14 14 -29 24 -31 9 -3 -182 -5 -425 -6
l-443 -1 0 45 0 45 418 -5 c229 -3 418 -9 419 -13z m4013 -27 l0 -45 -50 0
-50 0 0 45 0 45 50 0 50 0 0 -45z m-6720 -5 l0 -40 -44 0 c-47 0 -56 11 -48
58 4 19 11 22 48 22 l44 0 0 -40z m670 0 l0 -40 -240 0 -240 0 0 40 0 40 240
0 240 0 0 -40z m2287 34 c-3 -3 -12 -4 -19 -1 -8 3 -5 6 6 6 11 1 17 -2 13 -5z
m121 -11 c-12 -15 -42 -18 -33 -4 3 6 -12 12 -32 14 -22 2 -13 3 19 3 44 -1
54 -4 46 -13z m62 0 c0 -11 -3 -14 -8 -7 -4 6 -14 14 -22 17 -10 4 -8 6 8 6
15 1 22 -5 22 -16z m-140 -35 c0 -4 -16 -7 -35 -6 -19 1 -35 5 -35 9 0 4 16 7
35 6 19 -1 35 -5 35 -9z m190 -19 c0 -5 -33 -9 -72 -8 -62 1 -68 2 -38 9 19 5
46 6 59 3 15 -4 22 -2 17 5 -4 6 2 8 14 5 11 -3 20 -9 20 -14z m3345 -569 c0
-297 -3 -540 -7 -540 -5 0 -8 243 -8 540 0 297 3 540 8 540 4 0 7 -243 7 -540z
m745 447 l0 -44 -215 -1 -215 -1 0 39 c0 48 -8 47 238 49 l192 1 0 -43z m685
-2 l0 -40 -297 0 -296 -1 -4 38 c-3 31 0 38 17 41 11 3 146 4 300 3 l280 -1 0
-40z m571 20 c2 -11 1 -30 -2 -41 -5 -21 -9 -21 -192 -16 -103 2 -188 5 -189
6 -1 1 0 19 4 39 l6 37 185 -2 c176 -3 185 -4 188 -23z m-8541 -25 c0 -34 -1
-35 -42 -38 l-43 -3 0 41 0 41 43 -3 c41 -3 42 -4 42 -38z m883 -2 l3 -38
-350 0 -351 0 0 40 0 40 348 -2 347 -3 3 -37z m1295 35 c3 -5 2 -23 0 -40 l-5
-33 -208 0 -208 0 1 40 2 40 207 0 c114 0 209 -3 211 -7z m517 -33 l0 -40
-220 0 -220 0 0 40 0 40 220 0 220 0 0 -40z m330 32 c-8 -5 -53 -5 -100 -2
l-85 7 100 1 c55 1 93 -2 85 -6z m5890 -27 c0 -18 -4 -36 -8 -39 -5 -3 -70 -2
-145 1 l-137 6 0 33 0 33 145 0 145 1 0 -35z m-5927 -42 c-7 -2 -19 -2 -25 0
-7 3 -2 5 12 5 14 0 19 -2 13 -5z m3624 -105 c-2 -18 -4 -6 -4 27 0 33 2 48 4
33 2 -15 2 -42 0 -60z m-1731 19 c3 -3 7 -49 5 -64 -1 -14 -80 -19 -82 -5 0 4
-2 20 -4 37 -2 16 1 33 8 37 10 7 65 3 73 -5z m-4876 -37 l0 -40 -45 0 -45 0
0 40 0 40 45 0 45 0 0 -40z m414 23 c13 -43 1 -58 -47 -61 l-47 -3 0 34 c0 43
5 47 51 47 27 0 39 -5 43 -17z m456 -23 l0 -40 -165 0 -165 0 0 28 c0 49 12
52 177 52 l153 0 0 -40z m145 27 c8 -9 10 -19 4 -28 -7 -11 -9 -11 -9 3 0 9
-5 20 -11 24 -8 5 -10 -1 -7 -20 3 -14 1 -26 -3 -26 -5 0 -9 9 -9 21 0 11 -4
18 -10 14 -5 -3 -7 -12 -3 -20 4 -12 -4 -15 -36 -15 -39 0 -41 2 -41 30 0 30
0 30 56 30 33 0 61 -5 69 -13z m761 1 c3 -4 3 -22 -1 -38 l-7 -30 -327 0 -328
0 2 28 c1 15 3 32 3 38 2 14 649 16 658 2z m365 2 l249 0 0 -35 0 -35 -265 0
-265 0 0 41 c0 33 3 40 16 35 9 -3 128 -6 265 -6z m5749 -30 l0 -40 -370 0
-370 0 0 34 c0 28 4 35 23 39 12 2 178 5 370 6 l347 1 0 -40z m860 0 l0 -40
-115 0 -115 0 0 40 0 40 115 0 115 0 0 -40z m356 32 c7 -4 9 -21 7 -39 l-5
-33 -144 0 -144 0 0 40 0 40 138 0 c75 0 142 -4 148 -8z m-5303 -19 c-7 -2
-19 -2 -25 0 -7 3 -2 5 12 5 14 0 19 -2 13 -5z m-56 -45 c-3 -8 -6 -5 -6 6 -1
11 2 17 5 13 3 -3 4 -12 1 -19z m161 -390 l-2 -393 -6 355 c-5 325 -4 430 6
430 2 0 3 -177 2 -392z m-68 342 c0 -11 -4 -20 -10 -20 -5 0 -10 9 -10 20 0
11 5 20 10 20 6 0 10 -9 10 -20z m40 -1 c0 8 2 12 4 10 2 -2 0 -26 -4 -54 -7
-45 -7 -46 -9 -13 0 20 -4 45 -7 55 -5 15 -4 15 5 3 9 -12 11 -13 11 -1z m-44
-46 c-4 -9 -1 -20 6 -25 10 -6 8 -8 -4 -8 -13 0 -18 8 -18 25 0 14 5 25 11 25
6 0 8 -7 5 -17z m-3574 -15 c3 -7 2 -23 0 -35 -5 -24 -18 -26 -304 -28 l-53 0
-3 38 -3 37 180 0 c132 0 180 -3 183 -12z m396 -13 c-3 -14 -1 -22 5 -18 5 3
8 0 6 -6 -3 -7 -8 -12 -12 -12 -4 1 -22 2 -39 2 -18 1 -25 3 -15 6 35 9 15 23
-35 25 l-53 1 45 6 c31 4 4 8 -85 11 l-130 6 159 2 158 2 -4 -25z m202 -15 l0
-40 -55 0 -55 0 0 40 0 40 55 0 55 0 0 -40z m1046 24 c-3 -9 -6 -27 -6 -40 l0
-24 -235 0 -235 0 0 40 0 40 241 0 c216 0 241 -2 235 -16z m494 -24 l0 -40
-205 0 -205 0 0 40 0 40 205 0 205 0 0 -40z m2510 5 l0 -35 -92 0 c-51 0 -236
-3 -410 -7 l-318 -6 0 42 0 41 410 0 410 0 0 -35z m2430 1 c0 -42 -9 -46 -116
-46 l-84 0 0 40 0 40 100 0 100 0 0 -34z m758 -3 l-3 -38 -279 -3 c-160 -1
-284 2 -289 7 -5 5 -6 23 -2 40 l7 31 284 0 285 0 -3 -37z m222 13 c0 -48 -9
-56 -65 -56 l-53 0 -4 35 c-2 20 -2 38 1 40 2 3 31 5 63 5 55 0 58 -1 58 -24z
m238 17 c-15 -2 -42 -2 -60 0 -18 2 -6 4 27 4 33 0 48 -2 33 -4z m560 0 c-87
-2 -229 -2 -315 0 -87 1 -16 3 157 3 173 0 244 -2 158 -3z m682 -33 l0 -40
-50 0 c-50 0 -50 0 -50 33 0 43 5 47 57 47 l43 0 0 -40z m-9436 -23 c7 -6 6
-7 -4 -4 -8 2 -16 14 -17 28 -1 19 -1 20 4 4 3 -11 10 -24 17 -28z m8649 36
c-24 -2 -62 -2 -85 0 -24 2 -5 4 42 4 47 0 66 -2 43 -4z m-603 -7 c0 -3 -4 -8
-10 -11 -5 -3 -10 -1 -10 4 0 6 5 11 10 11 6 0 10 -2 10 -4z m-1800 -331 c0
-179 -3 -325 -7 -325 -5 0 -7 146 -5 325 1 179 5 325 7 325 3 0 5 -146 5 -325z
m-2765 297 c-3 -3 -11 0 -18 7 -9 10 -8 11 6 5 10 -3 15 -9 12 -12z m5232 12
c-3 -3 -12 -4 -19 -1 -8 3 -5 6 6 6 11 1 17 -2 13 -5z m-5872 -71 c-1 -35 -2
-202 -3 -373 l-2 -310 -62 0 c-58 0 -63 -2 -64 -22 -1 -13 -3 -38 -5 -55 l-4
-33 -1512 0 -1513 0 0 55 0 55 -70 0 -70 0 0 45 c0 44 1 45 33 47 17 1 727 2
1577 2 l1545 1 3 328 2 328 73 -3 72 -3 0 -62z m2768 0 c-38 -12 -53 -21 -56
-37 -3 -14 -5 -11 -6 10 0 17 1 33 4 36 3 2 28 5 57 5 l53 1 -52 -15z m1437
-83 l0 -40 -135 0 -135 0 0 31 c0 24 4 30 15 25 8 -3 15 -1 15 4 0 18 20 10
21 -7 1 -17 2 -17 6 0 4 16 16 18 99 16 52 -1 98 1 101 5 11 11 13 7 13 -34z
m2390 16 c0 -13 3 -31 6 -40 5 -13 -3 -16 -50 -16 l-56 0 0 34 c0 37 8 41 73
45 22 1 27 -3 27 -23z m-8920 -25 l0 -39 -490 -1 -490 -1 0 40 0 40 490 0 490
0 0 -39z m310 4 c0 -30 -4 -35 -22 -35 -13 -1 -62 -2 -111 -3 -52 -1 -87 2
-88 8 -1 6 -3 22 -5 38 l-3 27 115 0 114 0 0 -35z m590 0 l0 -35 -255 0 -255
0 0 35 0 35 255 0 255 0 0 -35z m520 0 l0 -35 -220 0 -220 0 0 35 0 35 220 0
220 0 0 -35z m178 -23 c91 -3 92 -2 89 20 -1 13 -9 26 -17 30 -8 4 31 7 88 7
l102 1 0 -35 0 -35 -185 0 -185 0 1 38 c1 36 2 36 8 7 l6 -30 93 -3z m2022 23
l0 -35 -144 0 c-78 0 -171 -3 -205 -6 l-61 -7 0 42 0 41 205 0 205 0 0 -35z
m260 0 l0 -36 -92 3 -93 3 -3 33 -3 32 95 0 96 0 0 -35z m438 -2 l3 -33 -60 0
-61 0 0 35 0 36 58 -3 c56 -3 57 -3 60 -35z m2762 -2 l0 -40 -225 -1 -225 -1
0 41 0 40 225 0 225 0 0 -39z m114 23 c5 -14 4 -15 -9 -4 -17 14 -19 20 -6 20
5 0 12 -7 15 -16z m471 6 c-198 -3 -385 -2 -415 1 -30 3 132 6 360 5 l415 0
-360 -6z m1015 -25 c0 -21 -5 -35 -12 -35 -7 0 -108 -1 -223 -2 -116 -1 -216
2 -223 6 -7 4 -12 20 -12 37 l0 29 235 0 235 0 0 -35z m-1313 9 c-3 -3 -12 -4
-19 -1 -8 3 -5 6 6 6 11 1 17 -2 13 -5z m-152 -14 c-3 -5 2 -10 12 -10 15 0
16 -2 3 -10 -20 -13 -33 -13 -25 0 3 6 1 10 -4 10 -6 0 -11 -4 -11 -10 0 -5
-4 -10 -10 -10 -20 0 -9 29 13 33 12 2 23 5 25 6 2 0 0 -3 -3 -9z m298 3 c-13
-2 -33 -2 -45 0 -13 2 -3 4 22 4 25 0 35 -2 23 -4z m-8243 -174 l0 -39 -54 0
c-30 0 -58 5 -62 11 -4 7 -9 8 -13 1 -3 -5 -30 -13 -58 -17 l-53 -7 0 45 0 45
120 1 120 0 0 -40z m728 -2 c2 -29 0 -37 -13 -37 -8 0 -110 -1 -225 -2 l-210
-3 0 37 0 38 213 2 c116 2 217 3 222 2 6 0 11 -17 13 -37z m3640 -4 l-3 -38
-212 -3 -213 -2 0 40 0 40 216 0 215 0 -3 -37z m682 -3 l0 -40 -80 0 c-47 0
-80 4 -80 10 0 14 -27 12 -33 -2 -3 -7 -6 6 -6 30 l-1 42 100 0 100 0 0 -40z
m305 31 l-30 -7 33 -11 c17 -7 32 -16 32 -21 0 -11 -34 -22 -68 -22 -20 0 -22
5 -20 35 2 34 3 35 43 34 37 -1 38 -2 10 -8z m2105 -31 l0 -40 -235 0 -235 0
0 40 0 40 235 0 235 0 0 -40z m350 0 l0 -40 -130 0 -130 0 0 40 0 40 130 0
130 0 0 -40z m370 0 l0 -40 -55 0 -55 0 0 40 0 40 55 0 55 0 0 -40z m-8317
-137 c3 -5 8 -23 12 -40 l7 -33 -61 0 -61 0 0 40 0 40 49 0 c28 0 52 -3 54 -7z
m835 -30 c-3 -34 -6 -38 -33 -40 -56 -5 -75 4 -77 40 l-1 32 -4 -32 c-4 -31
-6 -32 -66 -38 -34 -3 -163 -5 -287 -3 l-225 3 -3 38 -3 37 351 0 351 0 -3
-37z m742 -3 l0 -40 -75 0 -75 0 0 40 0 40 75 0 75 0 0 -40z m1098 3 l-3 -38
-157 -3 -158 -3 0 41 0 40 161 0 160 0 -3 -37z m2092 -13 l0 -40 -230 0 -230
0 0 40 0 40 230 0 230 0 0 -40z m300 1 c0 -33 -4 -40 -26 -45 -46 -12 -64 1
-64 45 l0 39 45 0 45 0 0 -39z m2858 -13 l3 -38 -45 0 -46 0 0 41 0 40 43 -3
c41 -3 42 -4 45 -40z m1336 26 c14 -36 6 -64 -19 -70 -39 -10 -55 2 -55 39 0
19 3 37 7 40 13 13 61 7 67 -9z m-264 -29 l0 -35 -307 2 -308 3 -1 25 c0 14 1
28 3 33 2 4 141 7 309 7 l304 0 0 -35z m810 0 l0 -35 -230 0 -230 0 0 35 0 35
230 0 230 0 0 -35z m-3823 -71 c19 -5 21 -12 20 -62 -1 -37 -7 -62 -17 -70
-13 -12 -13 -13 3 -8 11 3 16 2 12 -4 -3 -6 -28 -10 -56 -10 l-49 0 0 74 c0
50 4 76 13 79 17 8 48 8 74 1z m733 -68 c0 -59 -7 -66 -66 -66 l-34 0 0 54 0
55 43 4 c23 2 45 4 50 5 4 1 7 -22 7 -52z m100 -46 l0 -50 50 0 50 0 0 -50 0
-50 -45 0 -45 0 0 45 c0 42 -11 58 -25 35 -3 -5 -22 -10 -41 -10 -32 0 -34 2
-34 34 0 18 3 48 6 65 6 28 10 31 45 31 l39 0 0 -50z m-2929 -43 c-10 -9 -11
-8 -5 6 3 10 9 15 12 12 3 -3 0 -11 -7 -18z m452 -14 c-79 -2 -207 -2 -285 0
-79 1 -15 3 142 3 157 0 221 -2 143 -3z m925 0 c-141 -2 -375 -2 -520 0 -145
1 -29 2 257 2 286 0 404 -1 263 -2z m495 0 c-7 -2 -19 -2 -25 0 -7 3 -2 5 12
5 14 0 19 -2 13 -5z m-2056 -75 c-2 -13 -4 -3 -4 22 0 25 2 35 4 23 2 -13 2
-33 0 -45z m80 -14 c-3 -3 -12 -4 -19 -1 -8 3 -5 6 6 6 11 1 17 -2 13 -5z
m1371 -1 c-240 -2 -636 -2 -880 0 -244 1 -47 2 437 2 484 0 683 -1 443 -2z
m580 0 c-27 -2 -69 -2 -95 0 -27 2 -5 3 47 3 52 0 74 -1 48 -3z m1205 -70 c3
-24 1 -43 -4 -43 -5 0 -9 21 -9 47 0 56 5 54 13 -4z m72 -33 c-3 -5 -18 -9
-33 -9 l-27 1 30 8 c17 4 31 8 33 9 2 0 0 -3 -3 -9z m2367 -286 c2 -25 1 -47
-1 -50 -2 -2 -26 -4 -53 -4 l-48 0 0 50 0 50 49 0 49 0 4 -46z m-8181 7 c-8
-5 -19 -7 -25 -5 -7 3 -13 -8 -14 -26 -2 -30 12 -41 21 -17 3 7 6 5 6 -5 1
-10 8 -18 16 -18 12 0 15 9 13 35 -1 19 1 37 5 41 4 4 7 -14 7 -39 l0 -47 -40
0 c-40 0 -40 0 -40 38 0 46 5 52 39 52 19 0 22 -3 12 -9z m779 -36 l0 -45 -60
0 -60 0 0 39 c0 43 6 47 83 50 l37 1 0 -45z m5758 15 c1 -38 8 -49 30 -45 9 2
20 4 24 4 3 1 9 9 11 19 3 10 5 6 6 -10 1 -27 -1 -28 -44 -28 l-45 0 0 38 c0
32 6 52 15 52 1 0 2 -13 3 -30z m1001 -2 c-2 -30 -2 -30 -6 -6 -2 15 -12 29
-21 31 -12 3 -10 5 6 6 19 1 22 -4 21 -31z m-8757 5 c2 -10 2 -28 0 -40 -4
-20 -11 -23 -48 -23 l-44 0 0 40 0 40 44 0 c34 0 45 -4 48 -17z m1076 -20 l-3
-38 -257 -3 -258 -2 0 40 0 40 261 0 260 0 -3 -37z m702 -2 l0 -40 -212 2
-213 2 -3 38 -3 37 215 0 216 0 0 -39z m700 -1 l0 -40 -195 0 -195 0 0 40 0
40 195 0 195 0 0 -40z m5018 0 l2 -40 -50 0 -50 0 0 40 0 40 48 0 47 0 3 -40z
m332 30 c0 -5 -8 -10 -17 -10 -15 0 -16 2 -3 10 19 12 20 12 20 0z m204 -6 c3
-9 6 -27 6 -40 0 -23 -3 -24 -60 -24 l-60 0 0 40 0 40 54 0 c40 0 55 -4 60
-16z m1776 -24 l0 -40 -55 0 -55 0 0 40 0 40 55 0 55 0 0 -40z m-1129 -33 c-8
-8 -11 -3 -11 19 1 25 2 27 11 11 8 -14 8 -22 0 -30z m74 3 c-3 -5 -18 -10
-33 -9 l-27 1 25 8 c35 11 42 11 35 0z m-317 -7 c-10 -2 -26 -2 -35 0 -10 3
-2 5 17 5 19 0 27 -2 18 -5z m852 -38 l0 -46 -107 3 -108 3 -3 43 -3 42 110 0
111 0 0 -45z m230 21 c0 -13 3 -38 6 -55 6 -30 8 -31 59 -31 51 0 53 -1 59
-31 3 -17 6 -47 6 -65 l0 -34 50 0 c46 0 50 -2 50 -24 0 -13 3 -38 6 -55 l7
-31 -56 0 -56 0 -3 51 c-3 49 -4 51 -42 64 -50 18 -68 36 -69 73 -1 21 -6 28
-16 24 -10 -4 -12 -1 -6 8 6 10 4 12 -8 7 -9 -3 -19 -2 -22 3 -4 6 -17 10 -31
10 -20 0 -24 5 -24 33 0 17 -3 42 -6 55 -6 21 -3 22 45 22 47 0 51 -2 51 -24z
m-490 -136 l0 -50 -80 0 c-71 0 -80 -2 -80 -18 0 -15 -7 -18 -30 -17 -16 1
-30 -2 -30 -6 0 -5 -7 -6 -16 -2 -14 5 -16 -2 -13 -51 l4 -56 -52 0 c-52 0
-53 1 -53 29 0 16 -3 43 -6 60 l-6 31 56 0 56 0 0 58 c0 32 3 62 7 65 3 4 60
7 125 7 l118 0 0 -50z m407 -12 c-3 -8 -6 -5 -6 6 -1 11 2 17 5 13 3 -3 4 -12
1 -19z m-7947 -36 l0 -43 -47 3 -48 3 3 35 c5 41 13 48 58 47 33 -1 34 -2 34
-45z m498 1 l3 -43 -50 0 -51 0 0 39 c0 44 9 51 60 48 34 -2 35 -4 38 -44z
m-1268 -23 c3 -34 10 -55 18 -56 43 -4 42 0 42 -109 l0 -105 -45 0 -45 0 0
-55 0 -55 -125 0 -125 0 0 55 0 54 -57 3 -58 3 -3 53 -3 52 -65 0 -64 0 0 54
0 53 61 2 c34 1 66 -3 73 -8 8 -7 11 6 11 47 0 32 1 60 3 65 2 4 87 6 190 5
l187 -3 5 -55z m7210 18 l0 -43 -40 -2 -40 -3 0 45 0 45 40 0 40 0 0 -42z
m550 27 c0 -8 -6 -15 -12 -16 -10 0 -10 -2 0 -6 6 -2 10 -9 6 -14 -3 -5 -1 -9
5 -9 5 0 16 -3 25 -6 11 -4 16 -1 16 10 0 9 5 16 10 16 12 0 12 -3 4 -24 -6
-16 -39 -21 -68 -10 -16 6 -22 54 -9 67 11 12 23 8 23 -8z m50 -5 c0 -5 -10
-10 -22 -10 -19 0 -20 2 -8 10 19 13 30 13 30 0z m-3745 -170 l0 -45 -62 -3
-62 -3 -3 -47 -3 -47 -52 -3 -53 -3 0 -115 0 -114 -60 0 -60 0 0 -52 c0 -72
-7 -80 -66 -77 l-49 3 -3 -62 -3 -62 -59 0 -58 0 -7 -65 -7 -65 -64 0 -64 0 0
-125 0 -125 -217 2 -218 2 150 6 c92 3 135 7 110 11 -31 5 -25 6 22 5 35 -1
57 2 50 6 -6 4 -20 8 -29 8 -9 0 -20 5 -24 11 -8 14 16 31 37 25 12 -2 15 3
11 20 l-4 24 -279 0 c-154 0 -279 -4 -279 -8 0 -5 -21 -5 -47 -1 -27 4 -69 8
-95 8 l-48 1 0 -60 0 -60 -65 0 -65 0 0 -55 0 -55 -55 0 -55 0 0 -60 0 -60
-60 0 -60 0 0 -59 0 -58 -77 -6 c-72 -5 -123 -12 -128 -19 -1 -2 -5 -16 -9
-33 -7 -28 -6 -29 8 -10 14 20 15 20 35 -4 21 -24 21 -24 21 -3 0 12 5 22 11
22 5 0 7 -5 3 -11 -3 -6 -1 -15 5 -19 9 -5 9 -20 3 -56 -9 -46 -10 -47 -12
-14 -1 19 -4 30 -6 23 -3 -7 -11 -10 -17 -8 -7 2 -24 6 -39 9 -14 3 -29 14
-31 24 -3 9 -5 -74 -6 -186 l-1 -203 -57 2 -58 3 -2 -720 c0 -395 2 -708 6
-694 6 22 13 25 59 28 l52 3 0 -125 0 -126 54 0 c62 0 66 -5 66 -86 l0 -54 54
0 54 0 7 -65 7 -65 59 0 59 0 0 -69 0 -69 120 -7 120 -8 0 -63 0 -64 380 0
380 0 0 -104 0 -105 53 -3 52 -3 3 -112 3 -113 59 0 59 0 3 -102 3 -103 68 -3
68 -3 -3 -94 -3 -95 113 0 112 0 0 -57 0 -58 -679 5 c-374 3 -683 8 -687 13
-4 4 -3 7 3 7 6 0 10 21 9 48 l-1 47 -117 3 -118 3 0 59 0 59 -117 3 -118 3
-3 73 -3 72 -114 0 c-85 0 -115 3 -116 13 -1 6 -1 33 0 60 l2 47 -65 0 -65 0
1 117 c1 65 -2 118 -8 119 -5 1 -62 6 -127 9 l-118 7 5 53 6 53 -38 7 c-21 3
-48 2 -61 -3 -14 -5 -42 -5 -63 -2 -26 5 -41 4 -43 -4 -10 -33 -15 -38 -11
-12 6 47 0 51 -59 48 l-55 -4 0 69 c0 37 -5 75 -10 83 -6 10 -10 11 -10 3 0
-9 -17 -13 -50 -13 l-50 0 0 73 c0 39 -3 116 -7 170 l-6 97 -59 0 -58 0 0 133
0 133 -62 -1 -63 0 -3 808 -2 807 60 0 60 0 0 175 0 175 65 0 65 0 0 185 0
184 93 3 92 3 -3 62 -4 62 84 3 83 3 -4 108 -3 107 66 0 66 0 0 71 0 71 60 -4
60 -3 0 63 0 62 65 0 65 0 0 60 0 60 115 0 115 0 0 60 0 60 115 0 115 0 0 100
0 100 978 -2 977 -3 0 -45z m2165 -50 l0 -100 155 0 155 0 0 -60 0 -60 100 0
100 0 0 -60 0 -60 65 0 65 0 1 -50 c1 -27 2 -56 3 -62 1 -9 18 -12 59 -10 l57
4 0 -66 0 -65 113 -3 c91 -2 112 -6 113 -18 1 -8 2 -59 2 -112 l2 -98 55 0 55
0 0 -65 0 -65 116 0 116 0 -4 -179 -3 -180 -85 -6 c-47 -3 -94 -7 -105 -8 -15
-2 -21 -10 -23 -37 -5 -73 -14 -123 -20 -113 -11 15 -69 32 -94 27 -13 -2 -37
-7 -55 -10 -20 -4 -35 -14 -39 -26 -4 -14 -8 -17 -14 -8 -4 6 -10 -15 -14 -49
-4 -36 -11 -59 -17 -56 -5 4 -7 10 -4 14 7 12 -47 21 -122 21 -67 0 -83 -11
-68 -47 11 -26 12 -63 2 -63 -5 0 -7 11 -5 25 3 14 2 25 -3 25 -5 0 -10 -39
-11 -87 l-3 -88 -102 -3 -103 -3 0 58 c0 88 -10 133 -29 134 -12 0 -11 2 4 8
15 6 9 9 -27 12 -25 2 -44 1 -42 -3 2 -4 0 -9 -6 -13 -6 -4 -10 26 -10 86 l0
91 -55 -7 -54 -6 -3 63 -3 63 -52 -1 -53 -2 0 64 0 64 -55 0 -55 0 0 60 0 60
-55 0 -55 0 0 55 0 55 -57 0 c-32 1 -164 1 -293 2 -151 1 -204 3 -148 7 47 3
88 8 91 11 2 3 2 24 -1 46 l-4 41 -85 6 c-46 3 -159 2 -249 -1 l-164 -5 0 -53
0 -54 -60 0 -60 0 0 -55 0 -54 -57 -3 -58 -3 -3 -57 -3 -58 -59 0 -60 0 0 -59
0 -58 -77 -8 c-43 -3 -95 -6 -117 -6 -38 1 -38 0 -32 -30 3 -17 6 -40 6 -50 0
-27 76 -28 83 -1 3 10 5 5 6 -12 l1 -28 -53 6 -54 7 -6 -92 c-4 -51 -7 -132
-7 -181 l0 -90 -55 4 -55 3 0 -30 c0 -16 -2 -320 -4 -675 -2 -355 -1 -712 3
-795 l8 -150 2 115 c3 115 17 253 20 195 2 -41 12 -53 41 -50 36 4 37 4 20 15
-13 8 -13 10 1 10 24 0 29 -29 29 -162 l0 -118 55 0 55 0 0 -70 0 -70 59 0
c58 0 59 -1 65 -31 3 -17 6 -47 6 -65 l0 -34 60 0 59 0 3 -72 3 -73 118 -3
117 -3 0 -64 0 -65 401 0 401 0 -7 65 -7 65 111 0 111 0 0 75 0 75 105 0 105
0 0 65 0 65 55 0 55 0 0 130 0 130 60 0 60 0 0 65 0 65 105 0 105 0 0 -63 0
-63 58 1 57 0 3 -62 3 -63 109 0 109 0 3 -67 3 -68 58 -3 57 -3 0 -59 0 -59
56 -7 c30 -3 70 -4 87 -1 18 3 45 3 61 0 l28 -6 -4 -179 -3 -179 -65 1 c-36 1
-84 1 -107 1 l-43 -1 0 -54 0 -53 -120 -8 -120 -7 -1 -41 c-2 -32 -3 -35 -6
-14 -4 28 -5 28 -25 10 -21 -18 -21 -18 -9 4 13 26 15 44 2 23 -7 -10 -29 -14
-83 -13 -59 0 -65 -1 -33 -7 l40 -7 -40 -3 c-39 -2 -39 -3 -10 -10 17 -4 25
-8 18 -9 -7 0 -10 -8 -7 -16 3 -8 9 -14 12 -13 28 3 32 -5 32 -67 l0 -65 -50
0 -50 0 1 106 c0 58 -2 108 -5 111 -3 4 -6 -45 -6 -108 0 -63 -3 -138 -6 -166
l-7 -53 -58 0 c-33 0 -59 -3 -59 -7 0 -5 -22 -6 -50 -5 l-50 4 0 -70 c0 -39
-2 -77 -5 -84 -4 -11 -40 -13 -186 -10 -218 5 -233 2 -227 -39 3 -16 1 -32 -4
-35 -4 -3 -8 -13 -8 -22 0 -15 -11 -17 -100 -14 l-100 3 -1 -53 c-1 -29 -2
-60 -3 -68 -1 -13 -38 -15 -276 -13 -151 1 -384 2 -517 3 l-243 0 0 60 0 60
-50 1 c-27 1 -56 2 -62 3 -8 1 -14 22 -16 58 l-3 57 -57 3 -57 3 -3 73 -3 72
-74 1 c-41 1 -81 2 -87 3 -7 1 -23 -1 -35 -6 -22 -7 -23 -6 -23 56 l0 64 -121
7 -120 8 2 31 c2 17 -1 38 -5 45 -6 10 -5 12 2 7 7 -4 12 -1 12 9 0 9 -4 14
-8 11 -5 -3 -8 10 -7 29 0 18 -3 32 -6 29 -18 -11 -17 16 1 29 37 26 2 39 -97
36 l-88 -3 -1 58 c-1 32 -6 61 -13 65 -18 12 -81 0 -81 -15 0 -8 9 -14 20 -14
19 0 21 -6 19 -50 -2 -27 -6 -50 -11 -50 -4 0 -8 6 -8 13 0 8 -4 7 -10 -3 -5
-8 -7 -24 -5 -35 3 -11 2 -14 -1 -7 -7 16 -24 6 -24 -15 0 -8 6 -13 13 -10 8
3 20 1 28 -4 10 -6 7 -9 -13 -9 -35 0 -41 12 -29 55 l9 35 -60 0 -60 0 4 65
c2 38 -1 66 -7 66 -5 1 -32 2 -60 3 l-50 1 -1 72 c-1 40 -4 80 -8 88 -3 8 -2
15 2 15 4 0 5 42 2 92 l-5 93 -33 3 c-48 5 -60 -14 -61 -94 -1 -84 5 -103 32
-114 19 -8 18 -9 -10 -9 l-33 -1 0 170 0 170 -60 0 -60 0 0 130 0 130 -57 0
-58 0 -2 810 -3 810 55 0 55 0 0 175 0 175 25 1 c14 1 30 3 35 4 6 1 21 3 35
4 l25 1 0 120 0 120 55 0 55 0 0 60 0 59 58 3 57 3 3 63 3 62 59 0 60 0 0 110
0 110 65 0 65 0 0 70 0 70 81 0 81 0 -6 60 -7 60 71 0 70 0 1 45 c1 25 2 51 3
58 1 8 24 13 69 15 l67 3 0 59 0 60 105 0 105 0 0 50 0 50 65 0 65 0 0 43 c0
24 3 47 7 50 3 4 312 7 685 7 l678 0 0 -100z m2888 34 c22 -6 22 -9 22 -175 0
-184 3 -175 -59 -163 l-31 7 0 168 c0 169 0 169 23 169 12 0 32 -3 45 -6z
m-598 -14 l25 -8 -25 -2 c-23 -1 -23 -2 -5 -10 11 -5 14 -9 8 -9 -18 -1 -16
-16 3 -36 10 -9 25 -14 35 -12 11 3 19 1 19 -4 0 -6 -53 -8 -127 -7 l-128 3
-3 48 -3 47 88 -1 c48 -1 99 -5 113 -9z m-7510 -50 l0 -50 -45 0 -45 0 0 44
c0 48 6 54 58 55 32 1 32 1 32 -49z m-492 -2 c-3 -42 -3 -42 -45 -46 l-43 -3
0 45 0 46 46 0 45 0 -3 -42z m862 -4 c0 -25 -4 -43 -9 -40 -4 3 -7 21 -6 41 1
34 0 35 -30 33 -27 -2 -31 -6 -33 -32 -4 -46 -12 -45 -12 2 l0 42 45 0 45 0 0
-46z m5830 1 l0 -45 -40 0 -40 0 0 45 0 45 40 0 40 0 0 -45z m548 14 c3 -11 2
-11 -7 1 -9 13 -11 12 -11 -5 0 -12 5 -26 12 -33 9 -9 8 -12 -5 -12 -13 0 -17
9 -17 36 0 35 19 45 28 13z m43 -42 c-10 -9 -11 -8 -5 6 3 10 9 15 12 12 3 -3
0 -11 -7 -18z m509 -197 l0 -170 331 0 c206 0 338 -4 349 -10 16 -8 18 -8 14
5 -7 17 -3 18 20 9 11 -4 16 -19 16 -46 0 -35 -2 -40 -20 -35 -11 3 -20 1 -20
-4 0 -5 -25 -9 -55 -9 -30 0 -55 2 -55 4 0 2 -3 11 -6 20 -5 13 2 16 32 18
l39 1 -45 7 c-41 6 -42 7 -11 8 54 3 26 16 -34 17 -43 0 -55 -3 -55 -15 0 -9
3 -20 8 -25 4 -6 6 -9 3 -8 -2 1 -10 -4 -18 -12 -12 -12 -53 -15 -219 -15
l-204 0 -1 43 c0 23 -3 35 -7 27 -8 -18 -37 -19 -54 -2 -17 17 -33 15 -18 -3
15 -18 10 -25 -19 -28 -11 -1 -21 -5 -21 -9 0 -5 14 -7 31 -6 19 2 34 -2 36
-9 7 -20 -101 -17 -121 3 -15 14 -16 14 -16 0 0 -9 -5 -16 -11 -16 -16 0 -6
22 15 34 14 8 20 8 23 -1 7 -20 33 -15 33 6 0 13 6 18 18 16 9 -1 11 0 4 2 -7
3 -9 10 -5 16 4 7 -1 6 -10 -2 -9 -7 -17 -10 -17 -5 0 5 -4 3 -9 -5 -8 -12
-12 -12 -25 2 -18 17 -22 32 -6 22 7 -4 10 55 10 169 l0 176 50 0 50 0 0 -170z
m-8870 -5 l0 -45 -50 0 -50 0 0 45 0 45 50 0 50 0 0 -45z m208 -38 c24 -4 24
-4 -5 -6 -33 -1 -33 0 -31 42 l1 42 4 -37 c4 -31 8 -37 31 -41z m-18 -177 l0
-40 -217 2 c-120 1 -193 3 -162 5 53 4 56 5 51 28 -3 18 -11 25 -28 25 -13 0
-24 4 -24 9 0 6 81 10 190 11 l190 1 0 -41z m1140 0 l0 -40 -240 0 -240 0 4
23 c2 12 -1 30 -6 40 -8 16 6 17 237 17 l245 0 0 -40z m7333 19 c15 0 17 -2 7
-6 -8 -3 -18 -11 -22 -17 -11 -17 2 -27 23 -16 15 9 19 7 19 -5 0 -11 -10 -15
-36 -15 -33 0 -36 2 -30 23 3 12 6 31 7 42 0 11 3 14 6 8 2 -7 14 -13 26 -14z
m-8828 -19 c4 -6 -7 -10 -27 -10 -25 0 -29 3 -18 10 19 13 37 13 45 0z m8885
-26 c0 -8 -4 -12 -10 -9 -5 3 -10 10 -10 16 0 5 5 9 10 9 6 0 10 -7 10 -16z
m205 6 c-3 -5 -12 -10 -18 -10 -7 0 -6 4 3 10 19 12 23 12 15 0z m-9086 -207
c0 -11 -3 -13 -6 -5 -2 6 -15 12 -28 12 -26 0 -50 -32 -41 -56 7 -17 62 -19
69 -1 3 7 6 5 6 -5 1 -15 -8 -18 -44 -18 l-45 0 0 45 0 45 45 0 c36 0 45 -3
44 -17z m3374 -250 c-13 -2 -35 -2 -50 0 -16 2 -5 4 22 4 28 0 40 -2 28 -4z
m80 0 c-7 -2 -21 -2 -30 0 -10 3 -4 5 12 5 17 0 24 -2 18 -5z m2675 0 c-16 -2
-40 -2 -55 0 -16 2 -3 4 27 4 30 0 43 -2 28 -4z m-5551 -65 c-2 -13 -4 -3 -4
22 0 25 2 35 4 23 2 -13 2 -33 0 -45z m116 -15 c-13 -2 -33 -2 -45 0 -13 2 -3
4 22 4 25 0 35 -2 23 -4z m235 0 c-21 -2 -55 -2 -75 0 -21 2 -4 4 37 4 41 0
58 -2 38 -4z m8845 0 c-13 -2 -35 -2 -50 0 -16 2 -5 4 22 4 28 0 40 -2 28 -4z
m-6021 -134 c14 -8 23 -8 27 -1 4 6 43 11 89 11 80 0 82 0 82 -24 l0 -25 -162
2 c-124 1 -146 3 -93 8 l70 6 -75 4 c-69 3 -71 4 -30 10 l45 6 -35 5 c-32 5
-30 6 13 7 27 1 58 -3 69 -9z m-3592 -54 l0 -45 -75 0 -75 0 0 -80 0 -80 -44
0 c-43 0 -45 1 -48 33 -2 17 -2 74 0 125 l3 92 120 0 119 0 0 -45z m256 3 c-3
-24 -5 -44 -5 -45 -1 -2 -35 -3 -76 -3 -71 0 -75 1 -75 23 0 12 -3 32 -6 45
-6 22 -5 22 81 22 l87 0 -6 -42z m8884 -2 l0 -43 -42 -6 c-24 -3 -44 -4 -46
-2 -3 2 -7 24 -9 50 l-6 45 52 0 51 0 0 -44z m-5687 17 c-7 -2 -19 -2 -25 0
-7 3 -2 5 12 5 14 0 19 -2 13 -5z m2800 0 c-13 -2 -33 -2 -45 0 -13 2 -3 4 22
4 25 0 35 -2 23 -4z m3040 -60 c-13 -2 -35 -2 -50 0 -16 2 -5 4 22 4 28 0 40
-2 28 -4z m60 0 c-7 -2 -19 -2 -25 0 -7 3 -2 5 12 5 14 0 19 -2 13 -5z m-6610
-40 c-7 -2 -21 -2 -30 0 -10 3 -4 5 12 5 17 0 24 -2 18 -5z m6285 -40 l-3 -48
-56 -3 -57 -3 -4 46 c-2 26 -1 48 1 51 2 2 31 4 63 4 l59 0 -3 -47z m-8366 22
c9 -4 12 -19 10 -50 l-4 -45 -49 0 -49 0 0 44 c0 38 3 45 23 49 35 7 54 7 69
2z m7335 -57 c-3 -8 -6 -5 -6 6 -1 11 2 17 5 13 3 -3 4 -12 1 -19z m-37 -48
c16 0 30 6 33 13 2 7 3 6 3 -3 -1 -10 -15 -16 -44 -18 -38 -3 -42 -1 -42 20 1
20 2 21 11 6 6 -11 22 -18 39 -18z m62 -37 c-6 -65 -10 -70 -11 -15 0 28 3 52
7 52 4 0 6 -17 4 -37z m806 -40 l-3 -68 -47 -3 -48 -3 0 70 0 71 50 0 51 0 -3
-67z m-941 -15 c-3 -8 -6 -5 -6 6 -1 11 2 17 5 13 3 -3 4 -12 1 -19z m-1182
-18 c3 -5 1 -10 -4 -10 -6 0 -11 5 -11 10 0 6 2 10 4 10 3 0 8 -4 11 -10z
m1150 -4 c17 -1 -16 -4 -72 -4 -57 -1 -103 1 -103 6 0 6 105 6 175 -2z m-5372
-3 c-7 -2 -19 -2 -25 0 -7 3 -2 5 12 5 14 0 19 -2 13 -5z m5004 -29 c-3 -3
-12 -4 -19 -1 -8 3 -5 6 6 6 11 1 17 -2 13 -5z m-7685 -11 c-12 -2 -20 -9 -17
-14 4 -5 -2 -6 -12 -2 -15 6 -16 4 -6 -9 7 -8 10 -18 6 -21 -3 -4 0 -7 8 -7
12 0 11 -2 -1 -11 -11 -8 -6 -9 23 -5 20 2 37 1 37 -5 0 -5 -20 -9 -45 -9
l-45 0 0 38 c0 47 5 52 44 51 24 -1 26 -3 8 -6z m858 -38 l0 -45 -310 0 -310
0 0 38 c0 21 3 42 7 45 3 4 143 7 310 7 l303 0 0 -45z m192 11 c6 -51 1 -56
-53 -56 l-49 0 0 39 c0 42 7 48 66 50 29 1 32 -2 36 -33z m-909 4 c11 -13 13
-20 4 -20 -9 0 -9 -2 1 -8 9 -6 6 -12 -13 -20 -24 -11 -25 -11 -25 28 0 45 8
49 33 20z m8775 -17 c-3 -38 -3 -38 -50 -41 l-48 -3 0 40 0 41 51 0 50 0 -3
-37z m-8898 17 c0 -5 -2 -10 -4 -10 -3 0 -8 5 -11 10 -3 6 -1 10 4 10 6 0 11
-4 11 -10z m7798 -16 c8 -9 5 -11 -12 -10 -13 0 -28 6 -34 12 -8 9 -5 11 12
10 13 0 28 -6 34 -12z m42 -14 c0 -30 0 -30 -57 -29 -72 1 -116 12 -91 22 10
3 20 2 23 -3 4 -6 11 -10 17 -10 7 0 6 6 -2 15 -9 11 -9 15 -1 15 6 0 14 -7
17 -15 4 -10 20 -15 45 -15 35 0 39 3 39 25 0 14 2 25 5 25 3 0 5 -13 5 -30z
m-7683 -12 c-3 -8 -6 -5 -6 6 -1 11 2 17 5 13 3 -3 4 -12 1 -19z m8581 -72 c7
-4 12 -1 12 8 0 10 -6 13 -15 10 -8 -4 -15 -1 -15 5 0 6 16 11 35 11 l35 0 0
-94 c0 -122 -2 -126 -56 -126 l-44 0 0 112 c0 105 1 110 18 96 9 -8 23 -18 30
-22z m-1651 -38 c-3 -8 -6 -5 -6 6 -1 11 2 17 5 13 3 -3 4 -12 1 -19z m660
-70 c-2 -13 -4 -3 -4 22 0 25 2 35 4 23 2 -13 2 -33 0 -45z m-594 45 c-13 -2
-35 -2 -50 0 -16 2 -5 4 22 4 28 0 40 -2 28 -4z m34 -75 c-2 -18 -4 -6 -4 27
0 33 2 48 4 33 2 -15 2 -42 0 -60z m-7157 -113 l0 -45 -50 0 -50 0 0 45 0 45
50 0 50 0 0 -45z m7313 -48 l42 -4 -47 -1 -48 -2 1 33 c2 29 2 29 6 5 4 -24
10 -27 46 -31z m-4716 -9 c-3 -8 -6 -5 -6 6 -1 11 2 17 5 13 3 -3 4 -12 1 -19z
m-2349 -170 l-3 -43 -44 -3 c-48 -4 -61 6 -61 49 0 35 6 39 62 39 l49 0 -3
-42z m9042 3 l0 -39 -50 -4 c-42 -3 -50 0 -54 17 -4 16 -3 43 3 63 1 1 24 2
51 2 l50 0 0 -39z m518 -1 l3 -40 -211 0 -210 0 0 40 0 40 208 0 208 0 2 -40z
m-9874 -196 c12 -5 14 -10 6 -19 -8 -9 -7 -14 3 -18 8 -3 14 3 14 15 4 50 33
30 33 -23 l0 -40 -42 3 c-43 3 -43 3 -46 46 -3 42 2 48 32 36z m1176 -39 l0
-45 -40 0 -40 0 0 45 0 45 40 0 40 0 0 -45z m7743 38 c-24 -2 -43 -7 -44 -11
0 -4 -3 -20 -5 -35 -3 -16 -1 -27 3 -24 4 3 26 1 48 -3 25 -5 -26 -7 -135 -6
l-175 1 -3 43 -3 42 178 -2 c98 -1 159 -3 136 -5z m645 -35 l-3 -43 -275 -3
c-215 -2 -272 0 -262 10 7 7 12 27 12 45 l0 33 266 0 265 0 -3 -42z m-9500
-280 l3 -78 -51 0 -50 0 0 73 c0 41 3 77 7 81 4 4 25 6 48 4 l40 -3 3 -77z
m9437 72 c-3 -5 3 -10 14 -10 12 0 21 -6 21 -12 0 -9 4 -8 10 2 8 13 10 12 10
-2 0 -10 -7 -18 -15 -18 -8 0 -15 5 -15 11 0 5 -4 7 -10 4 -5 -3 -10 -11 -10
-16 0 -6 5 -7 10 -4 6 3 10 2 10 -3 0 -6 10 -8 23 -5 19 5 20 4 7 -8 -12 -12
-95 -13 -476 -11 l-462 3 -4 35 c-2 19 -2 37 1 39 10 10 892 5 886 -5z m345 6
c0 -2 -7 -6 -15 -10 -8 -3 -15 -1 -15 4 0 6 7 10 15 10 8 0 15 -2 15 -4z m20
-36 c0 -22 -5 -40 -11 -40 -5 0 -7 5 -4 10 3 6 0 10 -7 10 -10 0 -10 2 0 9 8
4 13 11 13 15 -3 18 0 36 4 36 3 0 5 -18 5 -40z m-83 -20 c1 -18 -2 -28 -7
-25 -12 7 -14 55 -2 55 4 0 8 -14 9 -30z m34 -23 c-10 -9 -11 -8 -5 6 3 10 9
15 12 12 3 -3 0 -11 -7 -18z m-351 -237 l0 -51 -47 3 -48 3 -3 48 -3 47 50 0
51 0 0 -50z m-172 -67 c-12 -3 -18 -14 -18 -33 0 -54 -7 -60 -69 -60 l-57 0
-3 50 -2 50 83 -1 c46 -1 75 -3 66 -6z m62 -8 c0 -8 -4 -15 -9 -15 -5 0 -11 7
-15 15 -3 9 0 15 9 15 8 0 15 -7 15 -15z m340 -35 l0 -50 -105 0 -105 0 0 50
0 50 105 0 105 0 0 -50z m-343 -12 c-3 -8 -6 -5 -6 6 -1 11 2 17 5 13 3 -3 4
-12 1 -19z m-9117 -58 l0 -40 -135 0 -135 0 0 40 0 40 135 0 135 0 0 -40z
m730 0 l0 -40 -310 0 -310 0 0 40 0 40 310 0 310 0 0 -40z m4407 3 c-3 -10 -5
-4 -5 12 0 17 2 24 5 18 2 -7 2 -21 0 -30z m4131 -70 c-21 -2 -55 -2 -75 0
-21 2 -4 4 37 4 41 0 58 -2 38 -4z m-368 -49 l0 -44 -50 0 -50 0 0 43 0 42 50
2 50 2 0 -45z m678 1 l3 -40 -51 -3 -50 -3 0 44 0 43 48 -1 47 0 3 -40z m-464
-87 c-1 -10 -2 -31 -3 -48 l-1 -30 -100 0 -100 0 0 49 0 49 102 -1 c91 -2 103
-4 102 -19z m-8887 -33 l0 -45 -248 0 -249 0 0 45 0 45 249 0 248 0 0 -45z
m9411 -14 c11 0 12 3 5 6 -7 2 -13 9 -13 14 0 6 8 5 20 -1 25 -13 19 -26 -15
-32 -28 -6 -33 3 -26 46 l6 31 3 -32 c2 -23 8 -33 20 -32z m22 39 c0 -5 -2
-10 -4 -10 -3 0 -8 5 -11 10 -3 6 -1 10 4 10 6 0 11 -4 11 -10z m-413 -32 c-3
-7 -5 -2 -5 12 0 14 2 19 5 13 2 -7 2 -19 0 -25z m-457 -95 c0 -81 7 -93 51
-93 52 0 60 -19 57 -128 l-3 -87 -35 0 -35 0 -3 66 c-3 66 -3 67 -34 73 -17 3
-41 6 -53 6 -30 0 -35 16 -35 121 l0 89 45 0 45 0 0 -47z m440 -138 l0 -45
-45 0 -45 0 0 45 0 45 45 0 45 0 0 -45z m-9156 4 c11 -58 11 -59 -54 -59 l-60
0 0 38 c0 21 3 42 7 45 3 4 28 7 53 7 45 0 48 -2 54 -31z m-244 -19 l0 -40
-50 0 -50 0 0 40 0 40 50 0 50 0 0 -40z m990 0 l0 -40 -50 0 -50 0 0 40 0 40
50 0 50 0 0 -40z m8542 -122 c8 -89 25 -122 63 -126 43 -5 55 -19 55 -66 0
-56 9 -66 61 -69 l44 -3 5 -89 5 -90 43 -3 42 -3 0 -60 0 -59 -42 -2 -43 -1
41 -6 c36 -5 40 -8 33 -26 -6 -17 -8 -17 -8 -2 -1 22 -13 22 -41 -3 l-23 -20
24 -1 c13 0 18 -3 11 -6 -6 -2 -10 -9 -6 -14 3 -5 -4 -9 -15 -9 -20 0 -21 6
-21 109 l0 110 -47 3 -48 3 -3 75 c-2 44 -8 78 -15 82 -7 4 -29 8 -49 8 -40 0
-39 -1 -53 82 -6 36 -7 37 -53 40 l-47 3 -3 53 c-2 35 -7 52 -16 52 -9 0 -14
17 -14 55 l0 56 56 -3 57 -3 7 -67z m-5105 -20 c-3 -7 -5 -2 -5 12 0 14 2 19
5 13 2 -7 2 -19 0 -25z m-4022 -201 l0 -42 -187 -3 -188 -2 0 38 c0 21 3 42 7
45 3 4 88 7 187 7 l181 0 0 -43z m269 37 c-8 -3 -10 -20 -7 -44 l6 -40 -55 0
c-30 0 -57 2 -59 4 -3 3 -3 23 -1 45 l4 41 62 -1 c33 0 56 -3 50 -5z m144 -1
c-15 -2 -42 -2 -60 0 -18 2 -6 4 27 4 33 0 48 -2 33 -4z m270 0 c-32 -2 -84
-2 -115 0 -32 2 -6 3 57 3 63 0 89 -1 58 -3z m7977 -152 c10 -98 4 -111 -51
-111 l-44 0 0 -42 c0 -78 7 -88 56 -88 l44 0 0 -45 0 -46 -95 2 -95 2 0 108 0
109 40 0 40 0 0 88 0 87 49 3 49 3 7 -70z m-7012 12 c-7 -2 -21 -2 -30 0 -10
3 -4 5 12 5 17 0 24 -2 18 -5z m-73 -93 c11 -7 -2 -10 -43 -10 -36 0 -56 4
-52 10 8 13 75 13 95 0z m-1980 -60 l0 -40 -50 0 -50 0 0 40 0 40 50 0 50 0 0
-40z m870 0 l0 -40 -390 0 -390 0 0 40 0 40 390 0 390 0 0 -40z m8635 -20 l0
-45 -107 -3 -108 -3 0 51 0 51 108 -3 107 -3 0 -45z m-1338 -2 c-3 -8 -6 -5
-6 6 -1 11 2 17 5 13 3 -3 4 -12 1 -19z m-3393 -4 c27 -10 18 -21 -14 -16 -16
2 -30 8 -30 13 0 10 21 12 44 3z m2979 -31 c4 -2 7 -10 6 -16 0 -9 -2 -9 -6 1
-2 6 -12 12 -21 12 -9 0 -24 5 -32 10 -11 8 -7 9 15 4 17 -4 33 -9 38 -11z
m421 1 c3 -8 2 -12 -4 -9 -6 3 -10 10 -10 16 0 14 7 11 14 -7z m-3374 -14 c0
-5 -2 -10 -4 -10 -3 0 -8 5 -11 10 -3 6 -1 10 4 10 6 0 11 -4 11 -10z m13
-105 c12 -2 36 -6 52 -8 17 -2 4 -5 -27 -6 l-58 -1 2 43 c1 36 2 38 5 10 3
-24 10 -34 26 -38z m5027 5 c0 -5 -5 -10 -11 -10 -5 0 -7 5 -4 10 3 6 8 10 11
10 2 0 4 -4 4 -10z m-654 -65 c9 -51 0 -65 -41 -65 -19 0 -35 -5 -35 -11 0 -5
-4 -7 -10 -4 -5 3 -10 31 -10 61 l0 54 45 0 c43 0 44 -1 51 -35z m554 -13 l0
-48 -37 2 c-21 1 -41 2 -45 3 -5 1 -8 21 -8 46 l0 45 45 0 45 0 0 -48z m-9047
-45 l122 -3 -127 -2 -128 -2 2 43 1 42 4 -37 4 -37 122 -4z m324 41 c-3 -8 -6
-5 -6 6 -1 11 2 17 5 13 3 -3 4 -12 1 -19z m-1105 -18 c3 -16 1 -30 -4 -30 -4
0 -8 14 -8 30 0 17 2 30 4 30 2 0 6 -13 8 -30z m5003 -22 c6 -4 2 -8 -7 -8
-10 0 -18 7 -18 17 0 9 3 12 8 7 4 -5 12 -12 17 -16z m-2648 6 c-3 -3 -12 -4
-19 -1 -8 3 -5 6 6 6 11 1 17 -2 13 -5z m-2034 -11 c-57 -2 -149 -2 -205 0
-57 1 -11 3 102 3 113 0 159 -2 103 -3z m824 1 c-3 -3 -12 -4 -19 -1 -8 3 -5
6 6 6 11 1 17 -2 13 -5z m46 -1 c-7 -2 -19 -2 -25 0 -7 3 -2 5 12 5 14 0 19
-2 13 -5z m7094 1 c-3 -3 -12 -4 -19 -1 -8 3 -5 6 6 6 11 1 17 -2 13 -5z
m1093 -49 l0 -45 -45 0 -45 0 0 38 c0 48 4 52 52 52 l38 0 0 -45z m-540 -10
l0 -45 -45 0 -45 0 0 45 0 45 45 0 45 0 0 -45z m868 3 c-3 -42 -3 -42 -45 -46
l-43 -3 0 45 0 46 46 0 45 0 -3 -42z m-9620 -150 l3 -38 -50 0 -51 0 0 41 0
40 48 -3 c47 -3 47 -3 50 -40z m172 38 c0 -2 -7 -7 -16 -10 -8 -3 -12 -2 -9 4
6 10 25 14 25 6z m440 -35 l0 -40 -152 -3 c-84 -2 -155 -2 -156 -1 -2 1 -6 20
-9 42 l-6 41 162 0 161 0 0 -39z m1940 13 c0 -2 -16 -4 -35 -4 -19 0 -35 4
-35 8 0 4 16 6 35 4 19 -2 35 -6 35 -8z m-2384 -26 c-1 -18 4 -22 22 -21 12 2
22 -2 22 -7 0 -17 -57 -11 -64 6 -10 26 -7 44 7 44 8 0 13 -10 13 -22z m7801
6 c-3 -3 -12 -4 -19 -1 -8 3 -5 6 6 6 11 1 17 -2 13 -5z m40 0 c-3 -3 -12 -4
-19 -1 -8 3 -5 6 6 6 11 1 17 -2 13 -5z m-5880 -81 c-2 -16 -4 -3 -4 27 0 30
2 43 4 28 2 -16 2 -40 0 -55z m553 13 c8 -2 -9 -4 -37 -5 -29 0 -53 3 -53 7 0
7 52 6 90 -2z m4423 -13 c-13 -2 -35 -2 -50 0 -16 2 -5 4 22 4 28 0 40 -2 28
-4z m105 0 c-16 -2 -40 -2 -55 0 -16 2 -3 4 27 4 30 0 43 -2 28 -4z m-5718
-43 l0 -40 -45 0 c-41 0 -45 2 -45 24 0 13 -3 31 -6 40 -5 13 2 16 45 16 l51
0 0 -40z m7076 8 c0 -21 4 -33 12 -32 6 1 27 2 46 3 31 1 34 4 30 25 -6 32 11
36 189 36 l147 0 0 -40 0 -40 -220 0 -220 0 0 40 c0 22 4 40 9 40 5 0 8 -15 7
-32z m-1539 -35 c-3 -10 -5 -4 -5 12 0 17 2 24 5 18 2 -7 2 -21 0 -30z m1600
21 c-3 -3 -12 -4 -19 -1 -8 3 -5 6 6 6 11 1 17 -2 13 -5z m-3170 -66 c-3 -8
-6 -5 -6 6 -1 11 2 17 5 13 3 -3 4 -12 1 -19z m1570 0 c-3 -8 -6 -5 -6 6 -1
11 2 17 5 13 3 -3 4 -12 1 -19z m-3989 -15 c-10 -2 -28 -2 -40 0 -13 2 -5 4
17 4 22 1 32 -1 23 -4z m4595 -10 c-7 -2 -19 -2 -25 0 -7 3 -2 5 12 5 14 0 19
-2 13 -5z m-586 -75 c-3 -7 -5 -2 -5 12 0 14 2 19 5 13 2 -7 2 -19 0 -25z
m-4629 -15 c-10 -2 -26 -2 -35 0 -10 3 -2 5 17 5 19 0 27 -2 18 -5z m65 0 c-7
-2 -21 -2 -30 0 -10 3 -4 5 12 5 17 0 24 -2 18 -5z m6817 -63 l0 -40 -388 0
-388 0 4 40 4 40 384 0 384 0 0 -40z m510 0 l0 -40 -210 0 -210 0 0 40 0 40
210 0 210 0 0 -40z m-5170 -50 c0 -13 -6 -20 -17 -19 -11 0 -13 3 -5 6 6 2 12
11 12 19 0 8 2 14 5 14 3 0 5 -9 5 -20z m-4290 -50 l0 -40 -225 0 -225 0 0 40
0 40 225 0 225 0 0 -40z m772 1 c-3 -35 -8 -40 -30 -43 -15 -2 -167 -2 -338 0
l-311 3 1 39 1 40 340 0 341 0 -4 -39z m468 -1 l0 -40 -45 0 -45 0 0 40 0 40
45 0 45 0 0 -40z m150 23 c0 -37 -13 -63 -31 -63 -24 0 -32 16 -19 40 8 15 8
20 -2 20 -20 0 14 20 35 20 10 0 17 -7 17 -17z m2790 0 c0 -13 -3 -14 -12 -5
-7 7 -17 12 -22 12 -6 0 -5 -4 2 -8 7 -5 14 -18 16 -29 l5 -21 -732 -4 c-403
-2 -734 -2 -736 -1 -10 7 8 11 74 17 39 3 72 6 75 6 2 0 -6 7 -18 16 -16 11
-32 13 -55 9 -18 -4 -28 -4 -24 1 5 5 304 11 665 14 361 3 681 6 710 8 43 2
52 -1 52 -15z m1176 -9 c-3 -8 -1 -14 4 -14 6 0 13 0 18 0 4 0 7 6 7 13 0 9
120 13 553 17 303 3 552 3 552 0 0 -3 -18 -13 -40 -23 -28 -13 -50 -16 -77
-11 -21 4 -35 4 -32 1 3 -4 30 -11 60 -16 37 -6 -62 -9 -322 -10 -207 0 -457
-4 -556 -8 l-180 -6 -5 34 c-3 19 -4 37 -1 42 8 13 25 -4 19 -19z m2777 -131
c-7 -2 -21 -2 -30 0 -10 3 -4 5 12 5 17 0 24 -2 18 -5z m767 -33 l0 -40 -315
0 -315 0 0 24 c0 13 -3 31 -6 40 -6 14 26 16 315 16 l321 0 0 -40z m-723 8
c-3 -8 -6 -5 -6 6 -1 11 2 17 5 13 3 -3 4 -12 1 -19z m-1659 -15 c-15 -2 -42
-2 -60 0 -18 2 -6 4 27 4 33 0 48 -2 33 -4z m957 -88 l0 -40 -46 -3 -47 -3 -4
41 c-2 23 -1 43 1 46 3 3 26 4 51 2 l45 -3 0 -40z m-7275 -80 l0 -45 -45 0
-45 0 0 45 0 45 45 0 45 0 0 -45z m760 0 l0 -45 -325 0 -324 0 1 45 1 45 323
0 324 0 0 -45z m180 0 l0 -45 -40 0 -40 0 0 45 0 45 40 0 40 0 0 -45z m477 37
c7 -4 11 -21 9 -37 l-3 -30 -107 -5 -106 -5 0 43 0 42 98 0 c53 0 102 -4 109
-8z m-253 -128 c3 -9 6 -29 6 -45 0 -22 -6 -30 -24 -35 -46 -11 -61 -2 -64 40
-2 24 2 42 10 47 22 14 65 10 72 -7z m366 -178 c0 -7 3 -28 6 -45 l7 -31 -52
0 -51 0 0 45 0 45 45 0 c32 0 45 -4 45 -14z m250 -31 l0 -45 -45 0 -45 0 0 45
0 45 45 0 45 0 0 -45z m480 0 l0 -45 -45 0 -45 0 0 45 0 45 45 0 45 0 0 -45z
m4658 -3 l3 -42 -48 0 -49 0 4 39 c3 34 8 40 30 44 51 8 57 4 60 -41z m362 -2
l0 -40 -50 0 -50 0 0 40 0 40 50 0 50 0 0 -40z m-3635 -92 c11 -40 17 -48 37
-52 35 -6 57 -19 62 -34 19 -71 18 -72 -16 -72 -69 0 -78 8 -78 61 l0 49 -64
0 c-36 0 -68 4 -71 10 -3 5 -3 26 1 45 l6 36 56 -3 c56 -3 57 -4 67 -40z
m1125 16 c21 -53 19 -54 -100 -54 l-110 0 0 40 0 40 100 0 c99 0 101 0 110
-26z m-1272 -71 c-10 -2 -26 -2 -35 0 -10 3 -2 5 17 5 19 0 27 -2 18 -5z
m1362 -13 c0 5 7 10 15 10 11 0 15 -12 15 -45 l0 -45 -50 0 -50 0 0 49 0 50
35 -15 c21 -8 35 -10 35 -4z m-1437 -2 c-5 -7 -9 -24 -9 -38 1 -19 8 -26 31
-31 29 -6 29 -7 -7 -8 l-38 -1 0 45 c0 35 4 45 16 45 12 0 14 -4 7 -12z m-43
-153 l0 -55 -49 0 c-52 0 -61 10 -61 71 0 35 6 39 62 39 l48 0 0 -55z m488 -4
c3 -46 1 -53 -13 -47 -9 3 -34 6 -56 6 l-39 0 0 51 0 50 53 -3 52 -3 3 -54z
m232 5 l0 -44 -45 -4 c-42 -3 -45 -2 -46 22 0 14 -2 35 -5 48 -4 20 0 22 46
22 l50 0 0 -44z m648 38 c19 -5 22 -13 22 -51 l0 -44 -47 3 c-46 3 -48 4 -51
36 -5 53 19 71 76 56z m482 -39 l0 -45 -45 0 -45 0 0 45 0 45 45 0 45 0 0 -45z
m864 20 c-5 -12 18 -15 138 -18 l143 -3 -147 -2 -148 -2 0 26 c0 14 4 23 10
19 5 -3 7 -12 4 -20z m3006 -10 c0 -12 -17 -15 -102 -13 l-103 2 98 3 c53 2
97 8 97 13 0 6 2 10 5 10 3 0 5 -7 5 -15z m-2477 -12 c-24 -2 -62 -2 -85 0
-24 2 -5 4 42 4 47 0 66 -2 43 -4z m310 0 c-7 -2 -19 -2 -25 0 -7 3 -2 5 12 5
14 0 19 -2 13 -5z m270 0 c-13 -2 -33 -2 -45 0 -13 2 -3 4 22 4 25 0 35 -2 23
-4z m1009 0 c-112 -2 -292 -2 -400 0 -108 1 -17 2 203 2 220 0 309 -1 197 -2z
m331 0 c-24 -2 -62 -2 -85 0 -24 2 -5 4 42 4 47 0 66 -2 43 -4z m695 -648 c1
-352 0 -655 -3 -672 -5 -31 -9 -33 -45 -33 l-40 0 0 676 0 675 43 -3 42 -3 3
-640z m-6788 0 l0 -625 -1550 0 -1550 0 0 46 0 46 1278 -4 c1425 -5 1736 -2
1728 18 -3 7 2 15 10 18 9 3 14 -1 15 -12 0 -11 2 -13 6 -4 3 8 -4 22 -16 33
-23 22 -27 30 -10 27 6 -2 14 3 17 11 3 8 0 11 -7 7 -7 -5 -11 2 -11 18 0 14
-5 26 -11 26 -8 0 -8 4 1 15 6 8 9 19 5 25 -3 5 1 10 10 10 12 0 15 5 11 16
-3 9 -6 21 -7 27 -1 7 -5 1 -9 -13 -4 -14 -8 156 -9 378 l-1 402 -1499 0
-1498 0 -7 53 c-3 28 -6 64 -6 79 l0 27 1555 0 1554 1 1 -625z m820 540 l0
-45 -55 0 c-50 0 -55 2 -55 23 0 57 9 67 61 67 l49 0 0 -45z m240 0 c0 -36 -4
-45 -17 -46 -10 0 -31 -2 -48 -4 -35 -5 -45 7 -45 58 l0 37 55 0 55 0 0 -45z
m220 38 c-66 -10 -70 -13 -68 -41 1 -15 6 -33 11 -40 7 -9 6 -11 -6 -6 -21 8
-25 22 -20 62 5 32 6 32 57 31 28 -1 40 -3 26 -6z m260 -43 l0 -50 -49 0 c-53
0 -61 10 -61 73 0 26 2 27 55 27 l55 0 0 -50z m250 -6 l0 -56 -31 6 c-17 3
-42 6 -55 6 -22 0 -24 4 -24 50 l0 50 55 0 55 0 0 -56z m410 11 c0 -51 18 -45
-150 -48 l-85 -2 -3 33 c-6 61 -4 62 123 62 l115 0 0 -45z m213 38 c-7 -2 -19
-2 -25 0 -7 3 -2 5 12 5 14 0 19 -2 13 -5z m-34 -40 c-6 -39 36 -47 51 -10 10
22 10 22 7 -3 -2 -22 -7 -25 -44 -28 -37 -3 -43 0 -43 17 0 16 7 24 28 30 1 1
1 -2 1 -6z m-2276 -12 c4 0 7 -260 7 -576 l0 -575 -40 0 -40 0 0 573 c0 316 3
576 6 580 5 5 27 4 67 -2z m3504 -38 c-3 -10 -5 -2 -5 17 0 19 2 27 5 18 2
-10 2 -26 0 -35z m323 1 l0 -45 -42 3 -43 3 -2 43 -2 42 45 0 44 0 0 -46z
m490 1 l0 -45 -145 0 -145 0 0 45 0 45 145 0 145 0 0 -45z m710 0 l0 -45 -313
0 -312 0 3 45 4 45 309 0 309 0 0 -45z m114 36 c4 -5 1 -11 -6 -13 -6 -2 -9
-11 -6 -19 4 -10 19 -13 55 -11 46 3 50 6 45 27 l-4 23 381 1 381 2 0 -39 c0
-33 -4 -41 -22 -46 -13 -3 -209 -6 -435 -6 l-413 0 0 45 c0 42 11 58 24 36z
m1126 -36 l0 -45 -90 0 -90 0 0 45 0 45 90 0 90 0 0 -45z m-5097 -2 c-7 -2
-19 -2 -25 0 -7 3 -2 5 12 5 14 0 19 -2 13 -5z m-98 -54 c8 -49 -1 -59 -57
-59 l-38 0 0 50 0 50 44 0 c44 0 44 0 51 -41z m643 -10 l-3 -38 80 -4 80 -3
-87 -2 -88 -2 0 51 c0 34 4 48 11 43 6 -3 9 -24 7 -45z m79 45 c-3 -3 -12 -4
-19 -1 -8 3 -5 6 6 6 11 1 17 -2 13 -5z m-240 -76 c-3 -8 -6 -5 -6 6 -1 11 2
17 5 13 3 -3 4 -12 1 -19z m-28 -4 c2 -2 -10 -4 -27 -4 -18 0 -32 5 -32 10 0
9 47 4 59 -6z m424 -11 c-7 -2 -19 -2 -25 0 -7 3 -2 5 12 5 14 0 19 -2 13 -5z
m44 1 c-3 -3 -12 -4 -19 -1 -8 3 -5 6 6 6 11 1 17 -2 13 -5z m-4309 -56 l3
-38 -370 0 -371 0 0 40 0 40 368 -2 367 -3 3 -37z m332 2 l0 -40 -131 0 c-115
0 -130 2 -125 16 3 9 6 27 6 40 l0 24 125 0 125 0 0 -40z m220 0 l0 -40 -65 0
-65 0 0 40 0 40 65 0 65 0 0 -40z m160 0 l0 -40 -40 0 -40 0 0 40 0 40 40 0
40 0 0 -40z m5080 8 c0 -5 -10 -8 -22 -6 -18 3 -22 -2 -25 -32 -2 -19 1 -62 6
-95 8 -56 9 -57 10 -17 0 23 6 42 11 42 6 0 10 18 10 40 0 51 -18 53 -23 3
l-4 -38 1 40 c1 35 4 40 24 39 15 0 22 5 22 17 0 10 5 21 10 24 7 4 10 -176
10 -532 l0 -538 57 0 58 0 0 -55 0 -55 -102 -3 -103 -3 -2 533 c-1 293 -3 558
-4 588 0 30 0 58 2 61 5 9 64 -2 64 -13z m-2480 -82 c0 -7 13 -16 29 -19 17
-4 35 -16 41 -29 7 -13 36 -45 65 -73 36 -34 55 -60 59 -82 l6 -33 -49 0 -49
0 -8 56 -9 57 -40 4 c-22 2 -46 6 -54 8 -7 3 -19 0 -27 -5 -7 -6 -37 -14 -68
-17 -52 -5 -55 -7 -61 -37 -10 -47 -33 -76 -59 -76 -41 0 -56 11 -56 40 0 27
31 66 43 53 4 -3 7 -1 7 5 0 16 102 122 117 122 7 0 21 9 30 20 20 23 83 28
83 6z m850 -65 c0 -48 -1 -50 -32 -56 -18 -4 -36 -12 -39 -17 -11 -17 -49 11
-49 36 0 13 -3 38 -6 55 l-6 31 66 0 66 0 0 -49z m837 23 c-9 -9 -117 -10
-117 -1 0 4 28 7 62 7 34 0 59 -3 55 -6z m-5097 -54 l0 -40 -394 0 -393 0 1
40 1 40 392 0 393 0 0 -40z m170 0 l0 -40 -45 0 -45 0 0 40 0 40 45 0 45 0 0
-40z m230 0 l0 -40 -70 0 -70 0 0 40 0 40 70 0 70 0 0 -40z m160 0 l0 -40 -40
0 -40 0 0 40 0 40 40 0 40 0 0 -40z m532 5 c2 -20 2 -38 -1 -40 -2 -3 -85 -5
-183 -5 l-178 0 0 40 0 40 179 0 179 0 4 -35z m3775 -2 c-3 -10 -5 -4 -5 12 0
17 2 24 5 18 2 -7 2 -21 0 -30z m2573 -43 l0 -40 -495 0 -495 0 0 40 0 40 495
0 495 0 0 -40z m410 0 l0 -40 -160 0 -160 0 0 40 0 40 160 0 160 0 0 -40z
m305 -25 c116 -1 216 1 222 3 7 2 12 14 11 27 l-2 22 -215 2 c-118 1 -217 4
-220 6 -2 3 98 5 222 5 l227 0 0 -40 0 -40 -232 2 -233 3 -2 40 -1 40 6 -35 7
-35 210 0z m525 56 c0 -8 -90 -5 -99 4 -2 3 19 5 47 5 29 0 52 -4 52 -9z
m-3637 -18 c-13 -2 -33 -2 -45 0 -13 2 -3 4 22 4 25 0 35 -2 23 -4z m-938 -37
c12 -63 6 -71 -58 -74 -62 -3 -62 -4 -46 51 10 39 33 55 76 56 17 1 23 -6 28
-33z m4575 4 c0 -19 -7 -20 -90 -20 -54 0 -90 4 -90 10 0 7 31 9 85 5 70 -4
85 -2 85 10 0 8 2 15 5 15 3 0 5 -9 5 -20z m-4943 -62 c-3 -7 -5 -2 -5 12 0
14 2 19 5 13 2 -7 2 -19 0 -25z m91 -5 c-10 -2 -26 -2 -35 0 -10 3 -2 5 17 5
19 0 27 -2 18 -5z m-4516 -65 l3 -63 48 0 47 0 0 -42 0 -43 -95 0 -95 0 0 105
0 105 45 0 44 0 3 -62z m266 20 l3 -38 -45 0 -46 0 0 41 0 40 43 -3 c41 -3 42
-4 45 -40z m3541 -13 c12 -7 14 -44 5 -69 -4 -12 -20 -16 -55 -16 l-49 0 0 44
c0 34 4 46 18 49 21 6 67 1 81 -8z m2175 -3 c3 -5 -81 -9 -187 -9 -110 0 -173
3 -147 7 64 10 328 12 334 2z m1182 -11 c-3 -5 6 -11 20 -14 17 -3 24 -1 21 8
-4 8 23 12 99 14 l104 2 0 -35 0 -36 -107 0 c-60 0 -118 -3 -130 -6 -21 -6
-23 -3 -21 35 1 22 5 41 10 41 5 0 7 -4 4 -9z m-1336 -17 c-58 -8 -148 -8
-143 -1 2 4 41 6 86 6 45 -1 71 -3 57 -5z m-470 -36 c0 -5 -4 -8 -10 -8 -5 0
-10 10 -10 23 0 18 2 19 10 7 5 -8 10 -18 10 -22z m367 16 c-3 -3 -12 -4 -19
-1 -8 3 -5 6 6 6 11 1 17 -2 13 -5z m128 -5 c-47 -4 -84 -3 -89 2 -6 5 25 8
80 8 l89 -2 -80 -8z m-5184 -19 l357 0 4 -35 4 -35 -64 0 c-35 0 -61 4 -58 9
8 13 75 19 80 6 2 -5 5 -2 5 8 1 10 6 15 11 12 6 -3 10 1 10 10 0 13 -4 14
-20 5 -14 -8 -20 -8 -20 0 0 7 -21 10 -57 8 -57 -3 -58 -3 -58 -33 l0 -30
-342 -3 -343 -2 0 46 0 47 68 -6 c37 -4 227 -7 423 -7z m5329 -4 c8 -2 -113
-4 -270 -3 -157 0 -265 3 -240 6 46 6 483 4 510 -3z m-4660 -31 l0 -35 -110 0
-110 0 0 35 0 35 110 0 110 0 0 -35z m157 8 c2 -27 1 -27 -9 -5 -11 23 -42 30
-53 12 -3 -5 0 -10 7 -10 9 0 9 -3 -2 -10 -11 -8 -8 -9 13 -4 16 4 27 2 27 -4
0 -6 8 -13 18 -15 9 -3 -2 -5 -25 -6 -53 -1 -58 0 -59 19 -1 32 17 50 49 50
29 0 33 -3 34 -27z m-813 -149 c22 -22 21 -64 -1 -64 -10 0 -186 -2 -390 -4
l-373 -4 0 44 0 44 374 0 c327 0 377 -2 390 -16z m176 -26 c0 -36 -2 -38 -30
-38 -27 0 -30 3 -30 33 0 40 2 43 35 43 22 0 25 -4 25 -38z m245 6 c3 -20 4
-38 2 -40 -2 -3 -35 -5 -73 -7 l-69 -2 -3 37 c-3 40 2 43 94 47 40 1 42 0 49
-35z m143 -11 c3 -42 2 -43 -27 -43 -29 0 -31 2 -31 38 0 45 6 54 35 50 16 -2
21 -12 23 -45z m322 2 l0 -45 -97 6 c-54 4 -98 7 -99 8 -1 0 1 18 4 39 l4 37
94 0 94 0 0 -45z m2977 28 c50 -23 230 -201 244 -240 6 -17 26 -44 45 -58 29
-22 34 -32 34 -66 0 -39 0 -39 -39 -39 l-40 0 -3 52 c-3 51 -4 51 -43 62 -33
10 -44 19 -60 54 -11 23 -47 67 -80 98 -54 51 -65 57 -112 62 l-51 4 -4 40
c-2 21 -2 41 1 44 10 10 76 3 108 -13z m883 -28 l0 -45 -95 0 -95 0 0 45 0 45
95 0 95 0 0 -45z m2698 -7 c-2 -27 -8 -43 -15 -42 -7 1 -227 2 -488 3 l-475 1
0 40 0 40 491 0 490 0 -3 -42z m106 27 c-4 -8 -8 -15 -10 -15 -2 0 -4 7 -4 15
0 8 4 15 10 15 5 0 7 -7 4 -15z m1119 8 c-13 -2 -33 -2 -45 0 -13 2 -3 4 22 4
25 0 35 -2 23 -4z m-1126 -55 c-3 -8 -6 -5 -6 6 -1 11 2 17 5 13 3 -3 4 -12 1
-19z m-6457 -83 l0 -45 -75 0 -75 0 0 39 c0 46 5 49 88 50 l62 1 0 -45z m115
25 c-3 -5 -11 -10 -16 -10 -6 0 -7 5 -4 10 3 6 11 10 16 10 6 0 7 -4 4 -10z
m-1795 -17 c-19 -3 -38 -10 -42 -16 -5 -8 -8 -6 -8 6 0 14 8 17 43 15 40 -1
40 -1 7 -5z m1804 -34 c-14 -6 -9 -8 19 -8 36 -1 50 12 25 22 -8 4 -7 6 3 6 9
1 19 -8 22 -19 5 -18 0 -20 -44 -20 -42 0 -49 3 -49 19 0 15 5 18 22 13 21 -5
21 -6 2 -13z m303 -15 c-3 -3 -12 -4 -19 -1 -8 3 -5 6 6 6 11 1 17 -2 13 -5z
m661 -1 c-10 -2 -28 -2 -40 0 -13 2 -5 4 17 4 22 1 32 -1 23 -4z m4852 -43 l0
-40 -285 0 -285 0 0 40 0 40 285 0 285 0 0 -40z m420 0 l0 -40 -149 0 c-82 0
-156 -3 -165 -6 -13 -5 -16 2 -16 40 l0 46 165 0 165 0 0 -40z m412 0 l-4 -40
-159 0 -159 0 0 40 0 40 163 0 163 0 -4 -40z m-8424 23 c-10 -2 -26 -2 -35 0
-10 3 -2 5 17 5 19 0 27 -2 18 -5z m4302 -22 c0 -5 3 -23 6 -40 l7 -31 -52 0
-51 0 0 40 0 40 45 0 c25 0 45 -4 45 -9z m1007 3 c-3 -4 -70 -7 -147 -8 -108
-2 -143 -5 -150 -16 -7 -11 -11 -11 -24 -1 -19 16 -158 11 -163 -6 -9 -27 37
-35 155 -25 65 6 158 8 207 6 50 -2 98 -4 108 -4 9 0 17 -4 17 -10 0 -6 -90
-10 -250 -10 l-250 0 0 40 0 40 252 0 c138 0 249 -3 245 -6z m-149 -31 c-10
-2 -26 -2 -35 0 -10 3 -2 5 17 5 19 0 27 -2 18 -5z m3617 -13 c-4 -6 -57 -9
-133 -8 l-127 2 130 6 c72 3 131 7 133 8 2 1 0 -2 -3 -8z m-6084 -202 c0 -18
2 -43 3 -55 2 -21 -1 -23 -51 -23 l-53 0 0 55 0 55 50 0 c50 0 50 0 51 -32z
m1341 -3 c4 -18 1 -25 -11 -26 -13 -1 -13 -2 2 -6 9 -2 17 -9 17 -14 0 -14
-323 -12 -338 3 -13 13 -16 50 -5 61 3 4 79 7 169 7 l162 0 4 -25z m5498 -25
c0 -53 -1 -54 -65 -53 -44 1 -45 2 -45 53 l0 50 55 0 55 0 0 -50z"/>
<path d="M1468 10183 c7 -3 16 -2 19 1 4 3 -2 6 -13 5 -11 0 -14 -3 -6 -6z"/>
<path d="M1457 10153 c4 -11 8 -12 13 -3 6 9 9 9 13 1 4 -8 5 -8 3 0 -1 7 -9
13 -18 15 -11 1 -15 -3 -11 -13z"/>
<path d="M270 10165 c0 -14 2 -25 4 -25 2 0 6 11 8 25 3 14 1 25 -3 25 -5 0
-9 -11 -9 -25z"/>
<path d="M8968 10033 c7 -3 16 -2 19 1 4 3 -2 6 -13 5 -11 0 -14 -3 -6 -6z"/>
<path d="M8973 10013 c15 -2 37 -2 50 0 12 2 0 4 -28 4 -27 0 -38 -2 -22 -4z"/>
<path d="M7774 9852 c4 -7 2 -12 -4 -12 -6 0 -8 -4 -5 -10 8 -12 55 -13 55 -1
0 5 -10 7 -22 3 -14 -3 -19 -1 -14 6 3 6 1 14 -5 18 -8 4 -9 3 -5 -4z"/>
<path d="M7482 9685 c0 -16 2 -22 5 -12 2 9 2 23 0 30 -3 6 -5 -1 -5 -18z"/>
<path d="M361 8890 c-1 -14 2 -35 5 -47 5 -20 7 -20 25 -5 23 20 24 32 4 32
-9 0 -20 10 -25 23 -9 22 -9 22 -9 -3z"/>
<path d="M390 8900 c-8 -5 -12 -12 -9 -15 4 -3 12 1 19 10 14 17 11 19 -10 5z"/>
<path d="M638 8903 c45 -2 119 -2 165 0 45 1 8 3 -83 3 -91 0 -128 -2 -82 -3z"/>
<path d="M1138 8903 c12 -2 32 -2 45 0 12 2 2 4 -23 4 -25 0 -35 -2 -22 -4z"/>
<path d="M1438 8903 c89 -2 235 -2 325 0 89 1 16 3 -163 3 -179 0 -252 -2
-162 -3z"/>
<path d="M2193 8903 c71 -2 183 -2 250 0 67 1 10 3 -128 3 -137 0 -192 -2
-122 -3z"/>
<path d="M2738 8903 c12 -2 32 -2 45 0 12 2 2 4 -23 4 -25 0 -35 -2 -22 -4z"/>
<path d="M2978 8903 c12 -2 32 -2 45 0 12 2 2 4 -23 4 -25 0 -35 -2 -22 -4z"/>
<path d="M3158 8903 c23 -2 61 -2 85 0 23 2 4 4 -43 4 -47 0 -66 -2 -42 -4z"/>
<path d="M7460 9506 c0 -2 7 -6 15 -10 8 -3 15 -1 15 4 0 6 -7 10 -15 10 -8 0
-15 -2 -15 -4z"/>
<path d="M5330 9335 c0 -8 4 -15 10 -15 5 0 7 7 4 15 -4 8 -8 15 -10 15 -2 0
-4 -7 -4 -15z"/>
<path d="M5440 9340 c0 -5 5 -10 10 -10 6 0 10 5 10 10 0 6 -4 10 -10 10 -5 0
-10 -4 -10 -10z"/>
<path d="M5368 9333 c7 -3 16 -2 19 1 4 3 -2 6 -13 5 -11 0 -14 -3 -6 -6z"/>
<path d="M5438 9303 c7 -3 16 -2 19 1 4 3 -2 6 -13 5 -11 0 -14 -3 -6 -6z"/>
<path d="M5798 9313 c6 -2 18 -2 25 0 6 3 1 5 -13 5 -14 0 -19 -2 -12 -5z"/>
<path d="M251 8364 c0 -11 3 -14 6 -6 3 7 2 16 -1 19 -3 4 -6 -2 -5 -13z"/>
<path d="M596 7997 c3 -10 9 -15 12 -12 3 3 0 11 -7 18 -10 9 -11 8 -5 -6z"/>
<path d="M4258 7013 c7 -3 16 -2 19 1 4 3 -2 6 -13 5 -11 0 -14 -3 -6 -6z"/>
<path d="M1820 4715 c0 -27 2 -46 4 -44 8 8 10 78 3 85 -4 4 -7 -14 -7 -41z"/>
<path d="M1970 4225 c0 -13 6 -28 13 -32 9 -5 12 -25 9 -62 -3 -36 -7 -49 -13
-40 -5 8 -9 9 -9 3 0 -11 42 -44 55 -44 3 0 5 7 5 15 0 9 6 12 16 8 14 -5 15
-3 1 23 -8 16 -17 45 -21 64 -4 26 -3 30 3 15 8 -17 10 -18 10 -2 1 9 6 17 11
17 6 0 10 14 10 30 0 29 -2 30 -45 30 -41 0 -45 -2 -45 -25z"/>
<path d="M2050 4133 c0 -18 4 -33 9 -33 5 0 12 -8 14 -17 4 -15 5 -16 6 -2 0
9 -6 32 -14 50 l-14 34 -1 -32z"/>
<path d="M2120 3945 c0 -17 9 -19 28 -6 11 7 10 10 -3 15 -23 9 -25 8 -25 -9z"/>
<path d="M4388 3023 c7 -3 16 -2 19 1 4 3 -2 6 -13 5 -11 0 -14 -3 -6 -6z"/>
<path d="M6953 7069 c-29 -10 -29 -20 -2 -37 12 -8 19 -10 16 -5 -3 4 2 14 10
22 13 12 14 11 8 -10 -5 -18 -4 -21 4 -9 24 33 4 54 -36 39z"/>
<path d="M6858 7023 c7 -3 16 -2 19 1 4 3 -2 6 -13 5 -11 0 -14 -3 -6 -6z"/>
<path d="M6953 7003 c9 -2 23 -2 30 0 6 3 -1 5 -18 5 -16 0 -22 -2 -12 -5z"/>
<path d="M5519 6378 c-1 -2 -3 -51 -4 -109 l-3 -107 40 0 c31 -1 38 2 34 14
-3 9 -6 27 -6 40 0 13 -4 24 -9 24 -6 0 -8 -9 -6 -21 3 -13 0 -19 -8 -16 -7 2
-13 21 -15 43 -3 35 -2 37 10 21 13 -17 15 -16 28 17 7 20 17 36 22 36 17 0 8
40 -9 41 -15 0 -15 2 2 9 15 6 8 9 -27 9 -27 1 -49 0 -49 -1z"/>
<path d="M7633 6353 c9 -2 25 -2 35 0 9 3 1 5 -18 5 -19 0 -27 -2 -17 -5z"/>
<path d="M7705 6238 c-9 -27 11 -83 30 -86 16 -2 17 -1 6 7 -13 9 -18 25 -23
74 -3 20 -7 22 -13 5z"/>
<path d="M7742 6220 c0 -19 2 -27 5 -17 2 9 2 25 0 35 -3 9 -5 1 -5 -18z"/>
<path d="M5602 6180 c0 -14 2 -19 5 -12 2 6 2 18 0 25 -3 6 -5 1 -5 -13z"/>
<path d="M4905 3890 c-3 -5 -4 -10 0 -10 3 0 1 -9 -5 -20 -9 -17 -8 -20 8 -20
15 0 18 6 14 30 -5 32 -7 36 -17 20z"/>
<path d="M4965 3850 c-3 -5 -1 -10 4 -10 6 0 11 5 11 10 0 6 -2 10 -4 10 -3 0
-8 -4 -11 -10z"/>
<path d="M8008 3733 c6 -2 18 -2 25 0 6 3 1 5 -13 5 -14 0 -19 -2 -12 -5z"/>
<path d="M7935 3670 c3 -5 8 -10 11 -10 2 0 4 5 4 10 0 6 -5 10 -11 10 -5 0
-7 -4 -4 -10z"/>
<path d="M7920 3621 c0 -12 5 -21 10 -21 6 0 10 6 10 14 0 8 -4 18 -10 21 -5
3 -10 -3 -10 -14z"/>
<path d="M1466 7893 c-6 -14 -5 -15 5 -6 7 7 10 15 7 18 -3 3 -9 -2 -12 -12z"/>
<path d="M9988 7463 c6 -2 18 -2 25 0 6 3 1 5 -13 5 -14 0 -19 -2 -12 -5z"/>
<path d="M10036 7445 c4 -8 8 -15 10 -15 2 0 4 7 4 15 0 8 -4 15 -10 15 -5 0
-7 -7 -4 -15z"/>
<path d="M10001 7434 c0 -11 3 -14 6 -6 3 7 2 16 -1 19 -3 4 -6 -2 -5 -13z"/>
<path d="M9439 6613 c-1 -5 -1 -11 0 -15 0 -5 -7 -8 -16 -9 -15 0 -15 -2 2 -8
20 -8 45 8 45 28 0 12 -29 15 -31 4z"/>
<path d="M9388 6572 c-3 -12 -2 -20 2 -17 5 3 11 -1 13 -7 4 -10 6 -10 6 0 1
7 6 10 11 7 6 -3 10 -1 10 5 0 7 -6 10 -14 7 -9 -4 -16 1 -18 11 -3 13 -5 12
-10 -6z"/>
<path d="M9471 6564 c0 -11 3 -14 6 -6 3 7 2 16 -1 19 -3 4 -6 -2 -5 -13z"/>
<path d="M9445 6550 c-3 -5 -1 -10 4 -10 6 0 11 5 11 10 0 6 -2 10 -4 10 -3 0
-8 -4 -11 -10z"/>
<path d="M918 6293 c6 -2 18 -2 25 0 6 3 1 5 -13 5 -14 0 -19 -2 -12 -5z"/>
<path d="M8980 6063 c0 -5 5 -15 10 -23 7 -12 9 -10 7 8 -1 19 -17 33 -17 15z"/>
<path d="M9035 6049 c-11 -16 -1 -19 13 -3 7 8 8 14 3 14 -5 0 -13 -5 -16 -11z"/>
<path d="M238 5473 c7 -3 16 -2 19 1 4 3 -2 6 -13 5 -11 0 -14 -3 -6 -6z"/>
<path d="M226 4592 c-2 -4 7 -9 20 -10 15 -1 22 2 19 8 -7 12 -32 13 -39 2z"/>
<path d="M296 4591 c-8 -12 23 -18 109 -25 49 -3 58 -2 30 3 -30 6 -34 9 -15
10 23 2 23 3 5 10 -11 5 -21 4 -23 0 -5 -12 -82 -11 -82 1 0 12 -17 13 -24 1z"/>
<path d="M593 4593 c9 -2 25 -2 35 0 9 3 1 5 -18 5 -19 0 -27 -2 -17 -5z"/>
<path d="M525 4569 c28 -4 57 -10 65 -12 86 -22 114 -19 103 9 -5 15 -7 15
-15 1 -5 -10 -15 -14 -25 -10 -15 6 -14 7 3 14 10 4 -26 7 -81 7 -88 0 -94 -2
-50 -9z"/>
<path d="M265 4549 c-29 -4 -16 -7 49 -8 49 0 87 1 85 3 -9 8 -96 11 -134 5z"/>
<path d="M568 4533 c6 -2 18 -2 25 0 6 3 1 5 -13 5 -14 0 -19 -2 -12 -5z"/>
<path d="M1740 3094 c0 -8 6 -11 15 -8 8 4 15 1 15 -4 0 -6 -8 -13 -17 -15
-14 -4 -12 -5 5 -6 28 -1 31 34 2 42 -13 3 -20 0 -20 -9z"/>
<path d="M7060 2740 c0 -5 7 -10 16 -10 8 0 12 5 9 10 -3 6 -10 10 -16 10 -5
0 -9 -4 -9 -10z"/>
<path d="M8940 2588 c1 -19 2 -20 10 -7 8 14 34 16 167 18 86 1 159 4 162 6 2
3 -73 5 -167 5 -172 0 -172 0 -172 -22z"/>
<path d="M8960 2572 c0 -11 17 -12 83 -6 45 3 84 8 85 10 2 1 -35 4 -82 6 -66
2 -86 0 -86 -10z"/>
<path d="M9378 2573 c12 -2 32 -2 45 0 12 2 2 4 -23 4 -25 0 -35 -2 -22 -4z"/>
<path d="M4558 1933 c6 -2 10 -8 8 -12 -3 -4 1 -8 8 -8 8 0 12 6 9 14 -3 7
-13 13 -22 12 -10 0 -11 -2 -3 -6z"/>
<path d="M5685 1920 c3 -5 8 -10 11 -10 2 0 4 5 4 10 0 6 -5 10 -11 10 -5 0
-7 -4 -4 -10z"/>
<path d="M220 1637 c0 -22 0 -22 92 -13 l91 9 -49 13 c-27 7 -68 13 -91 14
-38 0 -43 -3 -43 -23z"/>
<path d="M603 1653 c26 -2 67 -2 90 0 23 2 2 3 -48 3 -49 0 -68 -1 -42 -3z"/>
<path d="M846 1652 c5 -4 70 -5 144 -2 l135 6 -144 2 c-80 1 -141 -2 -135 -6z"/>
<path d="M1598 1653 c29 -2 74 -2 100 0 26 2 2 3 -53 3 -55 0 -76 -1 -47 -3z"/>
<path d="M2033 1653 c26 -2 45 -8 43 -12 -7 -11 107 -21 229 -20 61 0 92 4 80
8 -11 5 -24 6 -30 3 -7 -3 -7 -1 0 6 6 5 19 12 30 15 11 3 -74 4 -190 4 -115
0 -189 -2 -162 -4z m190 -10 c-13 -2 -33 -2 -45 0 -13 2 -3 4 22 4 25 0 35 -2
23 -4z"/>
<path d="M2598 1653 c23 -2 61 -2 85 0 23 2 4 4 -43 4 -47 0 -66 -2 -42 -4z"/>
<path d="M2808 1653 c7 -3 16 -2 19 1 4 3 -2 6 -13 5 -11 0 -14 -3 -6 -6z"/>
<path d="M3053 1653 c9 -2 23 -2 30 0 6 3 -1 5 -18 5 -16 0 -22 -2 -12 -5z"/>
<path d="M3194 1653 c60 -3 83 -8 92 -21 12 -15 12 -15 7 6 -5 21 -10 22 -92
20 l-86 -2 79 -3z"/>
<path d="M1885 1639 c30 -6 21 -7 -35 -4 -62 3 -68 2 -35 -5 22 -5 74 -6 115
-3 l75 7 -50 7 c-27 4 -63 7 -80 7 -26 -1 -24 -2 10 -9z"/>
<path d="M538 1633 c7 -3 16 -2 19 1 4 3 -2 6 -13 5 -11 0 -14 -3 -6 -6z"/>
<path d="M1063 1633 c15 -2 39 -2 55 0 15 2 2 4 -28 4 -30 0 -43 -2 -27 -4z"/>
<path d="M1630 1630 c8 -5 42 -9 75 -9 45 1 54 3 35 9 -38 12 -129 12 -110 0z"/>
<path d="M2578 1633 c12 -2 32 -2 45 0 12 2 2 4 -23 4 -25 0 -35 -2 -22 -4z"/>
<path d="M3058 1633 c12 -2 32 -2 45 0 12 2 2 4 -23 4 -25 0 -35 -2 -22 -4z"/>
<path d="M3223 1633 c9 -2 23 -2 30 0 6 3 -1 5 -18 5 -16 0 -22 -2 -12 -5z"/>
<path d="M3222 940 c0 -14 2 -19 5 -12 2 6 2 18 0 25 -3 6 -5 1 -5 -13z"/>
<path d="M6893 1320 c0 -25 2 -35 4 -22 2 12 2 32 0 45 -2 12 -4 2 -4 -23z"/>
<path d="M7478 1053 c7 -3 16 -2 19 1 4 3 -2 6 -13 5 -11 0 -14 -3 -6 -6z"/>
<path d="M1440 1010 c0 -5 15 -10 33 -9 27 0 29 2 12 9 -28 12 -45 12 -45 0z"/>
<path d="M1458 983 c7 -3 16 -2 19 1 4 3 -2 6 -13 5 -11 0 -14 -3 -6 -6z"/>
<path d="M5572 851 c-8 -4 -12 -19 -10 -31 3 -22 8 -23 80 -24 42 -1 74 2 71
7 -2 4 2 7 9 7 8 0 6 5 -4 11 -23 13 -23 30 -1 22 11 -4 14 -3 9 5 -8 14 -134
16 -154 3z"/>
<path d="M6217 10152 c3 -48 10 -94 15 -102 6 -11 8 -7 7 15 -3 62 1 95 11 95
6 0 10 -25 10 -55 0 -37 4 -55 13 -55 9 0 11 20 10 70 -2 64 0 70 17 70 11 0
20 6 20 14 0 14 -30 26 -82 32 l-27 4 6 -88z m43 28 c0 -5 -4 -10 -10 -10 -5
0 -10 5 -10 10 0 6 5 10 10 10 6 0 10 -4 10 -10z"/>
<path d="M6220 9991 c0 -6 5 -13 10 -16 6 -3 10 1 10 9 0 9 -4 16 -10 16 -5 0
-10 -4 -10 -9z"/>
<path d="M6168 9882 l-48 -3 0 -53 0 -52 48 0 c46 1 47 2 49 33 1 18 -3 35 -8
39 -5 3 -9 11 -9 17 0 8 3 7 9 -2 5 -7 14 -12 20 -10 9 3 8 8 -1 19 -9 10 -28
14 -60 12z"/>
</g>
</svg>
