<?xml version="1.0" standalone="no"?>
<!DOCTYPE svg PUBLIC "-//W3C//DTD SVG 20010904//EN"
 "http://www.w3.org/TR/2001/REC-SVG-20010904/DTD/svg10.dtd">
<svg version="1.0" xmlns="http://www.w3.org/2000/svg"
 width="540.000000pt" height="540.000000pt" viewBox="0 0 540.000000 540.000000"
 preserveAspectRatio="xMidYMid meet">
<metadata>
Created by potrace 1.14, written by Peter Selinger 2001-2017
</metadata>
<g transform="translate(0.000000,540.000000) scale(0.100000,-0.100000)"
fill="#000000" stroke="none">
<path d="M0 2831 c0 -2362 1 -2569 16 -2575 13 -5 16 -16 12 -57 -3 -28 -9
-54 -14 -58 -5 -3 -11 -36 -13 -74 l-3 -67 2701 0 2701 0 0 2700 0 2700 -2700
0 -2700 0 0 -2569z m3315 2329 c3 -5 -3 -10 -15 -10 -12 0 -18 5 -15 10 3 6
10 10 15 10 5 0 12 -4 15 -10z m205 -5 c0 -10 -10 -15 -30 -15 -20 0 -30 5
-30 15 0 10 10 15 30 15 20 0 30 -5 30 -15z m730 5 c0 -5 -10 -10 -22 -10 -19
0 -20 2 -8 10 19 13 30 13 30 0z m-3580 -10 c-20 -13 -410 -13 -410 0 0 6 77
10 213 10 140 0 207 -4 197 -10z m305 0 c-29 -12 -248 -12 -240 0 4 6 58 10
133 9 80 0 120 -4 107 -9z m168 3 c-7 -2 -19 -2 -25 0 -7 3 -2 5 12 5 14 0 19
-2 13 -5z m3865 2 c-2 -3 -47 -7 -99 -10 -66 -4 -89 -3 -79 4 15 10 188 16
178 6z m-925 -70 c-3 -11 -597 -20 -623 -9 -41 17 48 23 325 21 194 -1 299 -6
298 -12z m105 -2 c2 -9 -7 -13 -27 -13 -31 0 -42 14 -18 23 19 8 40 3 45 -10z
m222 -3 c0 -6 -35 -10 -86 -10 -54 0 -83 4 -79 10 3 6 42 10 86 10 46 0 79 -4
79 -10z m90 0 c0 -5 -7 -10 -15 -10 -8 0 -15 5 -15 10 0 6 7 10 15 10 8 0 15
-4 15 -10z m100 0 c0 -5 -7 -10 -15 -10 -8 0 -15 5 -15 10 0 6 7 10 15 10 8 0
15 -4 15 -10z m65 0 c-3 -5 -13 -10 -21 -10 -8 0 -14 5 -14 10 0 6 9 10 21 10
11 0 17 -4 14 -10z m265 -1 c0 -5 -45 -9 -100 -9 -61 0 -100 4 -100 10 0 6 39
10 100 9 55 0 100 -5 100 -10z m75 1 c-3 -5 -13 -10 -21 -10 -8 0 -14 5 -14
10 0 6 9 10 21 10 11 0 17 -4 14 -10z m-4557 -17 c-32 -2 -86 -2 -120 0 -35 2
-9 3 57 3 66 0 94 -1 63 -3z m1472 -53 c29 -29 25 -73 -10 -113 -24 -27 -30
-44 -30 -79 0 -54 19 -82 73 -109 l42 -21 -29 31 c-51 54 -19 38 107 -52 l67
-49 0 -102 c0 -109 -6 -126 -48 -126 -23 0 -23 2 -17 68 3 37 2 79 -2 93 -5
15 -54 66 -115 119 -60 51 -108 96 -109 99 -1 3 -2 29 -3 58 -1 38 -7 58 -24
76 -38 41 -25 101 28 120 29 11 50 7 70 -13z m3085 10 c3 -6 -4 -10 -17 -10
-18 0 -20 2 -8 10 19 12 18 12 25 0z m-1941 -19 c25 -28 17 -79 -15 -104 -21
-15 -35 -18 -69 -12 l-42 7 5 44 c2 25 13 54 22 64 23 26 76 26 99 1z m1546 9
c-20 -13 -80 -13 -80 0 0 6 21 10 48 10 34 0 43 -3 32 -10z m302 0 c-22 -9
-241 -5 -250 5 -3 3 57 5 134 4 94 0 132 -3 116 -9z m-4342 -20 c10 -6 -37
-10 -142 -10 -94 0 -159 4 -163 10 -8 13 285 13 305 0z m1764 -152 l97 -93 -3
-165 c-3 -148 -5 -165 -20 -168 -17 -3 -18 10 -18 158 l0 162 -72 82 c-98 111
-102 116 -91 116 5 0 53 -42 107 -92z m976 84 c0 -14 -11 -21 -26 -15 -8 3
-11 9 -8 14 7 11 34 12 34 1z m1225 -2 c3 -4 -3 -11 -12 -14 -20 -6 -971 -4
-1071 2 -34 2 -60 8 -56 13 7 12 1131 12 1139 -1z m-3386 -4 c-10 -10 -669
-16 -669 -6 0 7 114 10 337 10 185 0 334 -2 332 -4z m237 -4 c-7 -12 -173 -15
-181 -2 -4 7 26 10 90 10 53 0 94 -4 91 -8z m81 2 c-3 -3 -12 -4 -19 -1 -8 3
-5 6 6 6 11 1 17 -2 13 -5z m3473 -6 c-78 -9 -376 -5 -387 6 -4 3 99 5 228 5
195 -1 222 -3 159 -11z m-2360 -35 c17 -21 20 -35 14 -58 -3 -16 -9 -98 -11
-181 -4 -151 -4 -151 -32 -178 l-29 -28 -4 219 c-3 180 -2 221 11 236 19 23
26 22 51 -10z m140 17 c0 -5 -2 -10 -4 -10 -3 0 -8 5 -11 10 -3 6 -1 10 4 10
6 0 11 -4 11 -10z m-1450 -69 c0 -5 -171 -10 -395 -10 -268 -1 -395 2 -395 9
0 7 128 10 395 10 225 0 395 -4 395 -9z m2038 -17 c-9 -9 -21 -13 -27 -9 -16
10 -3 25 22 25 20 0 20 -1 5 -16z m1166 6 c291 0 527 -3 524 -6 -3 -3 -327 -5
-719 -6 -913 -1 -932 0 -924 12 5 7 103 9 298 6 161 -3 530 -5 821 -6z m-1374
-8 c0 -14 -246 -253 -253 -246 -14 15 -5 28 76 112 103 107 177 163 177 134z
m-2300 -52 c0 -6 -60 -10 -160 -10 -100 0 -160 4 -160 10 0 6 60 10 160 10
100 0 160 -4 160 -10z m505 0 c4 -7 -71 -10 -219 -10 -139 0 -227 4 -231 10
-4 7 71 10 219 10 139 0 227 -4 231 -10z m325 0 c0 -5 -7 -10 -15 -10 -8 0
-15 5 -15 10 0 6 7 10 15 10 8 0 15 -4 15 -10z m-87 -7 c-7 -2 -21 -2 -30 0
-10 3 -4 5 12 5 17 0 24 -2 18 -5z m1987 -13 c0 -5 -18 -10 -41 -10 -24 0 -38
4 -34 10 3 6 22 10 41 10 19 0 34 -4 34 -10z m78 -6 c-9 -10 -24 -14 -33 -10
-23 9 -9 26 23 26 24 0 25 -1 10 -16z m487 6 c4 -7 -71 -10 -217 -9 -134 0
-215 4 -203 9 29 12 412 12 420 0z m905 -1 c0 -5 -193 -9 -436 -9 -303 0 -433
3 -429 11 8 13 865 11 865 -2z m-2296 -26 c-5 -10 -11 -70 -14 -133 l-6 -115
-2 118 c-1 82 2 122 11 132 17 19 21 18 11 -2z m46 -17 c0 -2 -8 -10 -17 -17
-16 -13 -17 -12 -4 4 13 16 21 21 21 13z m-1721 -22 c2 -2 -81 -4 -185 -4
-113 0 -183 4 -175 9 13 8 351 3 360 -5z m240 1 c2 -3 -33 -5 -78 -5 -45 0
-80 4 -77 9 5 8 146 4 155 -4z m-192 -1 c-3 -3 -12 -4 -19 -1 -8 3 -5 6 6 6
11 1 17 -2 13 -5z m3043 -55 c0 -5 -78 -9 -190 -9 -117 0 -190 4 -190 10 0 9
353 20 373 12 4 -2 7 -7 7 -13z m90 0 c0 -5 -9 -9 -20 -9 -19 0 -26 11 -14 23
8 8 34 -3 34 -14z m130 6 c0 -12 -13 -15 -55 -15 -67 0 -73 17 -7 23 26 2 50
4 55 5 4 1 7 -5 7 -13z m-1095 -5 c-3 -6 -50 -10 -106 -10 -59 0 -99 4 -99 10
0 6 42 10 106 10 67 0 103 -4 99 -10z m82 4 c-3 -3 -12 -4 -19 -1 -8 3 -5 6 6
6 11 1 17 -2 13 -5z m288 -4 c-4 -6 -55 -10 -121 -10 -69 0 -114 4 -114 10 0
6 47 10 121 10 77 0 118 -4 114 -10z m92 4 c-3 -3 -12 -4 -19 -1 -8 3 -5 6 6
6 11 1 17 -2 13 -5z m723 -4 c0 -5 -9 -10 -20 -10 -11 0 -20 5 -20 10 0 6 9
10 20 10 11 0 20 -4 20 -10z m-1703 -37 c-3 -10 -5 -4 -5 12 0 17 2 24 5 18 2
-7 2 -21 0 -30z m-1302 17 c-4 -6 -142 -10 -381 -10 -243 0 -374 4 -374 10 0
6 134 10 381 10 251 0 378 -3 374 -10z m115 0 c0 -5 -12 -10 -26 -10 -14 0
-23 4 -19 10 3 6 15 10 26 10 10 0 19 -4 19 -10z m1187 -62 c-3 -8 -6 -5 -6 6
-1 11 2 17 5 13 3 -3 4 -12 1 -19z m-2157 -8 c0 -5 -21 -10 -47 -10 -27 0 -43
4 -36 8 19 12 83 14 83 2z m796 -2 c4 -5 -163 -7 -372 -6 -208 0 -359 4 -334
7 65 9 697 7 706 -1z m2509 -3 c0 -13 -294 -19 -385 -9 -64 8 -64 8 -25 15 62
11 410 6 410 -6z m-796 -72 c-1 -90 -16 -148 -19 -73 -3 51 -3 55 -14 92 -10
34 -2 58 19 58 12 0 15 -14 14 -77z m249 70 c-27 -2 -69 -2 -95 0 -27 2 -5 3
47 3 52 0 74 -1 48 -3z m630 0 c-10 -2 -26 -2 -35 0 -10 3 -2 5 17 5 19 0 27
-2 18 -5z m210 0 c-27 -2 -69 -2 -95 0 -27 2 -5 3 47 3 52 0 74 -1 48 -3z
m265 0 c-29 -2 -78 -2 -110 0 -32 2 -8 3 52 3 61 0 87 -1 58 -3z m-3587 -72
c-4 -6 -256 -7 -361 -1 -5 0 -5 4 2 8 15 10 365 3 359 -7z m494 8 c0 -12 -24
-16 -70 -13 -25 2 -53 3 -63 3 -10 1 -16 4 -14 9 6 9 147 10 147 1z m-205 -9
c-6 -10 -212 -7 -223 4 -3 3 47 6 112 6 76 0 115 -4 111 -10z m545 0 c0 -5 -9
-10 -20 -10 -11 0 -20 5 -20 10 0 6 9 10 20 10 11 0 20 -4 20 -10z m300 0 c0
-5 -11 -10 -25 -10 -14 0 -25 5 -25 10 0 6 11 10 25 10 14 0 25 -4 25 -10z
m1528 -17 c-15 -2 -42 -2 -60 0 -18 2 -6 4 27 4 33 0 48 -2 33 -4z m702 -3 c0
-6 -107 -10 -280 -10 -175 0 -280 4 -280 10 0 6 105 9 280 9 173 0 280 -3 280
-9z m390 -1 c0 -6 -50 -9 -130 -7 -71 1 -130 6 -130 10 0 4 59 8 130 7 78 0
130 -4 130 -10z m330 1 c0 -6 -53 -10 -139 -10 -83 0 -142 4 -146 10 -4 6 45
10 139 10 91 0 146 -4 146 -10z m72 -2 c-9 -9 -15 -9 -24 0 -9 9 -7 12 12 12
19 0 21 -3 12 -12z m-4286 -48 c24 0 44 -4 44 -9 0 -6 -83 -10 -205 -11 -127
0 -205 4 -205 10 0 8 273 20 308 13 8 -2 34 -3 58 -3z m354 -10 c0 -5 -7 -10
-15 -10 -8 0 -15 5 -15 10 0 6 7 10 15 10 8 0 15 -4 15 -10z m-750 -100 c0
-26 16 -26 30 1 15 28 36 18 32 -14 -3 -22 1 -27 17 -27 27 0 28 -30 1 -37
-13 -3 -20 -14 -20 -29 0 -30 -13 -31 -33 -1 l-16 22 -7 -22 c-7 -24 -30 -37
-39 -22 -4 5 -4 18 0 28 4 13 0 20 -15 24 -11 3 -20 10 -20 17 0 7 9 14 20 17
15 4 19 11 15 24 -4 10 -3 23 0 29 11 18 35 11 35 -10z m4670 -10 c42 -42 12
-120 -47 -120 -65 0 -96 80 -47 119 34 26 68 27 94 1z m-3582 -20 c367 0 552
-3 552 -10 0 -12 -1288 -14 -1330 -2 -32 9 102 21 175 16 28 -2 299 -4 603 -4z
m2376 4 c46 -18 -21 -24 -260 -24 -166 0 -264 4 -264 10 0 6 86 11 223 13 122
1 236 3 254 5 17 1 38 -1 47 -4z m904 -11 c3 -10 -86 -13 -421 -13 -457 0
-598 12 -247 20 380 10 663 7 668 -7z m-2434 -76 c31 -22 16 -51 -34 -65 -341
-99 -539 -194 -763 -364 -43 -33 -80 -58 -82 -56 -5 5 43 127 70 178 25 48 42
59 215 148 126 65 257 120 390 165 33 12 186 7 204 -6z m1058 -45 c146 -59
393 -181 425 -212 13 -11 30 -34 38 -50 16 -32 65 -163 65 -175 0 -4 -18 9
-41 30 -99 89 -336 228 -499 291 -107 42 -274 94 -301 94 -9 0 -27 8 -39 18
l-23 19 22 22 c22 22 29 23 125 19 93 -4 111 -9 228 -56z m-1665 -9 c7 -19
-22 -21 -262 -19 -126 1 -362 3 -522 4 -182 1 -293 6 -293 12 0 19 1071 23
1077 3z m2916 -4 c-7 -7 -130 -11 -344 -11 -536 -1 -654 1 -643 12 10 10 434
17 788 12 143 -2 206 -6 199 -13z m107 7 c0 -15 -24 -28 -34 -19 -13 14 -5 33
14 33 11 0 20 -6 20 -14z m88 -3 c-2 -10 -12 -18 -23 -18 -11 0 -21 8 -23 18
-3 13 3 17 23 17 20 0 26 -4 23 -17z m-1808 -101 c266 -55 533 -191 745 -378
161 -143 231 -251 299 -464 67 -206 78 -274 83 -505 5 -233 -4 -308 -52 -408
-55 -118 -216 -228 -425 -291 -108 -33 -260 -65 -260 -55 0 4 11 16 24 26 65
49 211 298 254 433 27 82 42 150 33 150 -3 0 -26 -23 -50 -51 -40 -46 -125
-108 -222 -163 -21 -12 -29 -20 -21 -23 14 -5 148 33 167 47 36 26 44 15 11
-15 -90 -80 -303 -162 -466 -180 l-55 -6 40 23 c36 20 38 23 17 26 -13 2 -58
-5 -100 -17 -215 -57 -537 -55 -752 4 -30 8 -66 15 -80 15 -23 0 -21 -2 15
-26 l40 -25 -50 6 c-155 20 -372 103 -455 175 l-35 30 55 -19 c76 -25 160 -44
167 -38 3 3 -24 20 -58 37 -88 44 -191 124 -220 171 -44 71 -50 46 -18 -70 41
-144 125 -304 231 -437 35 -44 52 -74 44 -74 -34 0 -168 33 -265 66 -251 84
-370 186 -426 364 -23 75 -32 343 -15 492 24 220 107 479 196 610 96 142 326
329 531 431 121 61 296 121 413 141 52 8 106 18 120 20 14 3 120 3 235 1 158
-3 233 -9 305 -23z m-2025 -5 c50 1 156 5 238 8 l147 7 0 -26 0 -26 -144 0
c-84 0 -147 4 -151 10 -4 6 -121 7 -331 3 -291 -6 -324 -5 -324 10 0 8 6 18
13 21 6 3 113 2 237 -2 124 -4 266 -6 315 -5z m3668 1 c64 0 117 -5 117 -9 0
-5 -19 -10 -42 -10 -24 -1 -131 -3 -238 -5 -107 -3 -260 -7 -339 -10 -81 -3
-147 -2 -153 4 -5 5 -6 17 -2 27 7 17 23 17 273 11 146 -4 319 -7 384 -8z
m315 -10 c3 -16 -6 -18 -87 -18 -56 0 -91 4 -91 10 0 19 43 29 110 27 53 -2
65 -5 68 -19z m-4578 2 c0 -5 -9 -11 -20 -11 -11 -1 -25 -2 -32 -3 -6 -1 -13
5 -15 12 -3 8 7 12 31 12 20 0 36 -4 36 -10z m4675 0 c3 -5 3 -10 -2 -10 -4 0
-18 -3 -30 -6 -17 -5 -23 -2 -23 10 0 18 45 23 55 6z m-4465 -120 c0 -16 -7
-20 -30 -20 -18 0 -30 5 -30 13 0 20 10 27 37 27 16 0 23 -6 23 -20z m208 9
c109 2 132 -3 132 -30 0 -18 -8 -19 -124 -19 -73 0 -127 4 -131 10 -3 6 -19
10 -36 10 -17 0 -29 5 -29 13 0 23 13 28 55 21 22 -4 82 -6 133 -5z m4220 5
c26 -7 29 -19 7 -28 -22 -8 -195 5 -195 15 0 12 151 23 188 13z m-4543 -14
c-3 -5 -37 -10 -76 -10 -39 0 -69 4 -69 10 0 6 32 10 76 10 47 0 73 -4 69 -10z
m4118 -8 c10 -10 14 -22 10 -25 -3 -4 -46 -7 -95 -7 -72 0 -88 3 -88 15 0 22
35 34 101 34 42 1 60 -4 72 -17z m127 9 c0 -12 -33 -20 -64 -14 -42 8 -30 23
19 23 25 0 45 -4 45 -9z m90 -1 c0 -5 -11 -10 -25 -10 -14 0 -25 5 -25 10 0 6
11 10 25 10 14 0 25 -4 25 -10z m-656 -21 c-7 -11 -81 -12 -88 0 -9 14 0 16
48 13 25 -2 43 -8 40 -13z m-2977 5 c-10 -11 -197 -14 -197 -3 0 5 44 9 102 9
56 0 99 -3 95 -6z m40 0 c-3 -3 -12 -4 -19 -1 -8 3 -5 6 6 6 11 1 17 -2 13 -5z
m3021 -1 c-10 -2 -26 -2 -35 0 -10 3 -2 5 17 5 19 0 27 -2 18 -5z m142 -3 c0
-5 -15 -10 -34 -10 -19 0 -38 5 -41 10 -4 6 10 10 34 10 23 0 41 -4 41 -10z
m-4005 -100 c0 -10 -12 -16 -32 -18 -32 -3 -45 13 -26 32 13 12 58 2 58 -14z
m283 -2 c3 -16 -8 -18 -117 -18 -94 0 -121 3 -121 13 0 25 14 28 125 25 95 -3
110 -5 113 -20z m280 -11 c23 -2 45 -1 47 3 3 5 14 6 25 3 40 -10 7 -23 -60
-23 -50 0 -73 4 -85 16 -13 14 -14 19 -3 25 8 5 17 3 23 -5 6 -7 30 -16 53
-19z m3537 24 c12 -20 -26 -41 -73 -40 -28 1 -37 4 -22 6 14 3 32 11 40 18 8
7 22 15 30 18 8 3 16 6 17 6 1 1 4 -3 8 -8z m580 -11 c0 -12 -17 -16 -82 -18
-65 -2 -83 0 -83 11 0 24 13 28 90 25 59 -2 75 -6 75 -18z m-4255 0 c-20 -13
-100 -13 -100 0 0 6 26 10 58 10 40 0 53 -3 42 -10z m4050 -2 c0 -4 -72 -8
-160 -8 -88 0 -160 4 -160 8 0 5 72 9 160 8 88 0 160 -4 160 -8z m-3742 -117
c20 -12 -9 -21 -88 -27 -36 -3 -80 -7 -97 -9 -29 -3 -33 -1 -33 21 0 24 0 24
103 24 56 0 108 -4 115 -9z m-328 -11 c-8 -5 -24 -10 -35 -10 -17 0 -17 2 -5
10 8 5 24 10 35 10 17 0 17 -2 5 -10z m3612 -1 c8 -5 -26 -9 -84 -9 -57 0 -99
4 -103 11 -8 12 166 11 187 -2z m-3738 -30 c70 0 94 -3 79 -9 -12 -5 -105 -9
-205 -9 -101 0 -191 -3 -200 -6 -14 -6 -18 -2 -18 15 0 23 0 23 122 17 66 -4
167 -7 222 -8z m4414 -6 c3 -10 -53 -13 -260 -13 -261 0 -313 4 -302 21 9 15
556 7 562 -8z m-156 -133 c112 0 148 -3 148 -12 0 -10 -47 -13 -202 -13 -112
0 -254 -3 -315 -6 -112 -6 -113 -7 -153 -43 -27 -24 -50 -36 -70 -36 -17 0
-30 4 -30 9 0 4 25 32 56 61 l56 53 181 -6 c99 -4 247 -7 329 -7z m-3967 -9
c2 -5 -132 -9 -300 -10 -168 -1 -310 -2 -316 -3 -6 -2 -14 3 -16 10 -4 10 59
12 311 12 173 -1 318 -5 321 -9z m25 -31 c0 -5 -2 -10 -4 -10 -3 0 -8 5 -11
10 -3 6 -1 10 4 10 6 0 11 -4 11 -10z m55 -40 c18 -20 17 -20 -12 -20 -16 0
-38 7 -49 16 -18 14 -18 15 4 4 27 -13 45 -4 22 10 -13 8 -13 10 1 10 9 0 24
-9 34 -20z m-335 -40 c-12 -8 -10 -10 8 -10 13 0 21 4 18 8 -3 5 1 9 9 9 8 0
12 -4 9 -8 -2 -4 4 -9 13 -11 10 -3 -6 -5 -35 -6 -33 -1 -51 2 -47 8 9 14 -29
12 -44 -2 -11 -11 -12 -10 -6 2 6 12 5 13 -6 3 -16 -15 -33 -17 -24 -3 3 6 1
10 -4 10 -6 0 -11 -4 -11 -10 0 -12 -54 -13 -170 -2 l-85 7 90 6 c163 10 301
9 285 -1z m107 -4 c-3 -7 0 -19 6 -26 9 -9 6 -9 -13 0 -15 8 -20 15 -12 18 6
2 10 8 6 13 -3 5 0 9 6 9 7 0 10 -6 7 -14z m131 -80 c51 -43 90 -81 88 -84 -3
-2 -40 28 -83 68 -43 40 -88 77 -100 83 -13 5 -23 14 -23 19 0 14 16 2 118
-86z m3572 72 c-54 -48 -73 -59 -33 -20 23 23 46 42 50 42 4 0 -4 -10 -17 -22z
m530 13 c20 -1 22 -3 10 -11 -8 -6 -97 -10 -205 -9 -104 0 -211 0 -238 0 -43
-1 -53 -6 -122 -66 -41 -36 -75 -63 -75 -59 0 4 30 36 67 72 51 48 77 65 102
68 19 3 37 6 39 8 3 3 331 0 422 -3z m-4150 -91 c28 -27 62 -53 75 -56 24 -6
35 -24 16 -24 -12 0 -98 69 -130 104 -42 45 -14 28 39 -24z m3540 6 c0 -2 -7
-7 -16 -10 -8 -3 -12 -2 -9 4 6 10 25 14 25 6z m-3862 -65 c3 -8 -36 -11 -122
-11 -108 0 -147 6 -132 21 10 10 251 0 254 -10z m4502 4 c0 -13 -23 -15 -149
-15 -197 0 -212 18 -19 23 79 1 149 4 156 5 6 1 12 -5 12 -13z m-4340 -5 c0
-5 -9 -10 -21 -10 -11 0 -17 5 -14 10 3 6 13 10 21 10 8 0 14 -4 14 -10z
m3945 0 c-3 -5 -13 -10 -21 -10 -8 0 -14 5 -14 10 0 6 9 10 21 10 11 0 17 -4
14 -10z m-3910 -81 c4 -6 5 -12 3 -15 -7 -6 -409 -7 -415 -1 -3 3 -2 10 2 16
9 15 401 15 410 0z m112 -5 c5 -14 -41 -24 -58 -14 -6 4 -8 13 -4 19 9 15 57
10 62 -5z m3673 2 c0 -19 -51 -31 -61 -15 -12 19 -1 29 32 29 18 0 29 -5 29
-14z m266 3 c13 -21 -19 -27 -119 -23 -105 4 -113 6 -102 23 9 15 212 15 221
0z m155 1 c16 0 29 -4 29 -9 0 -13 -114 -20 -122 -8 -12 19 3 29 34 23 17 -3
43 -6 59 -6z m-4294 -126 c-6 -7 -349 -5 -356 1 -2 3 78 5 179 5 101 0 181 -3
177 -6z m3696 -1 c-7 -2 -19 -2 -25 0 -7 3 -2 5 12 5 14 0 19 -2 13 -5z m102
-3 c-3 -5 -15 -10 -26 -10 -10 0 -19 5 -19 10 0 6 12 10 26 10 14 0 23 -4 19
-10z m523 4 c-7 -7 -390 -5 -397 1 -2 3 87 5 199 5 112 0 201 -3 198 -6z m62
-4 c0 -5 -4 -10 -9 -10 -6 0 -13 5 -16 10 -3 6 1 10 9 10 9 0 16 -4 16 -10z
m-4322 -115 c-4 -15 -67 -18 -84 -5 -24 21 -16 26 36 20 28 -3 49 -9 48 -15z
m4067 15 c8 -14 -21 -24 -42 -15 -17 7 -16 8 2 15 27 12 33 12 40 0z m-305 -9
c0 -14 -21 -17 -85 -12 -53 4 -56 5 -25 11 63 10 110 11 110 1z m110 -1 c12
-8 9 -10 -12 -10 -16 0 -28 5 -28 10 0 13 20 13 40 0z m105 0 c-8 -12 -52 -13
-59 -2 -3 5 11 9 30 10 20 1 32 -3 29 -8z m-3752 -109 c57 -1 58 -1 55 -28
l-3 -28 -346 -3 c-302 -2 -348 0 -353 13 -16 43 -6 45 248 47 132 2 264 2 291
2 28 -1 76 -2 108 -3z m4110 -13 c2 -7 0 -21 -5 -30 -8 -17 -36 -18 -367 -18
-305 0 -360 2 -371 15 -7 8 -10 22 -6 30 5 13 54 15 375 15 286 0 370 -3 374
-12z m-429 -110 c-4 -6 -3 -9 2 -6 15 9 54 -10 54 -27 0 -38 -72 -2 -85 43 -6
22 -5 23 14 12 12 -6 18 -16 15 -22z m62 -308 c96 -89 174 -166 174 -171 0 -4
-9 -13 -21 -19 -18 -10 -30 -2 -107 72 -48 46 -122 114 -165 153 -93 83 -131
130 -123 151 10 25 49 -5 242 -186z m-4148 154 c50 -4 89 -11 86 -15 -3 -5
-77 -9 -165 -9 -135 0 -159 2 -159 15 0 17 78 20 238 9z m4512 -15 c0 -12
-207 -12 -215 1 -3 6 34 10 97 12 109 3 118 2 118 -13z m-4260 -41 c-25 -22
-93 -85 -152 -140 -59 -54 -120 -105 -135 -113 -40 -21 -203 -21 -203 0 0 12
17 15 95 15 l95 0 136 125 c74 69 138 123 143 121 5 -3 16 3 26 14 10 11 23
20 29 20 6 0 -9 -19 -34 -42z m-250 -28 c0 -5 -9 -10 -21 -10 -11 0 -17 5 -14
10 3 6 13 10 21 10 8 0 14 -4 14 -10z m-123 -6 c-12 -12 -117 -16 -117 -5 0 7
25 11 62 11 34 0 58 -3 55 -6z m4628 -4 c-7 -12 -104 -13 -122 -2 -7 4 19 9
58 10 44 1 68 -2 64 -8z m-4590 -70 c-3 -5 -40 -10 -81 -10 -43 0 -74 4 -74
10 0 6 34 10 81 10 51 0 78 -4 74 -10z m4595 -1 c0 -8 -27 -9 -92 -5 -50 3
-94 8 -96 11 -3 3 38 5 91 5 65 0 97 -4 97 -11z m-4090 -44 c0 -23 -130 -134
-169 -145 -20 -5 -45 -16 -56 -24 -28 -22 -44 -19 -54 6 -10 29 5 75 29 88 10
6 42 10 70 10 47 0 57 4 102 44 48 42 78 50 78 21z m3541 -42 c13 -15 17 -22
9 -16 -8 6 -26 13 -39 15 -29 4 -41 28 -14 28 11 0 30 -12 44 -27z m179 -175
c0 -5 -4 -8 -8 -8 -13 0 -54 37 -50 46 2 4 -6 8 -17 10 -11 2 -21 8 -23 14 -2
5 -8 8 -13 4 -5 -3 -8 0 -7 8 2 7 -4 12 -12 10 -8 -2 -12 0 -7 4 9 9 -23 45
-34 38 -5 -3 -9 0 -9 6 0 7 7 10 15 6 8 -3 15 0 15 7 0 6 34 -22 75 -63 41
-41 75 -78 75 -82z m366 119 c4 -4 -31 -6 -77 -5 -66 1 -75 2 -39 7 60 8 107
7 116 -2z m-4633 -64 c-7 -2 -21 -2 -30 0 -10 3 -4 5 12 5 17 0 24 -2 18 -5z
m4620 -10 c-7 -2 -19 -2 -25 0 -7 3 -2 5 12 5 14 0 19 -2 13 -5z m-601 -43 c4
0 8 -7 8 -17 0 -9 3 -14 6 -10 7 6 54 -33 54 -45 0 -21 -40 -4 -70 31 -19 22
-38 37 -41 35 -4 -2 -6 7 -6 20 0 24 0 24 20 5 11 -10 24 -19 29 -19z m342
-40 c23 -23 15 -85 -14 -100 -33 -18 -78 -12 -94 12 -26 37 -19 51 11 23 15
-14 34 -25 41 -25 15 0 62 44 62 58 0 12 -50 45 -67 45 -7 0 -13 5 -13 10 0
14 53 -2 74 -23z m151 20 c-3 -5 -12 -10 -20 -10 -8 0 -17 5 -20 10 -4 6 5 10
20 10 15 0 24 -4 20 -10z m115 0 c0 -5 -11 -10 -24 -10 -14 0 -28 5 -31 10 -4
6 7 10 24 10 17 0 31 -4 31 -10z m-4165 -7 c-37 -10 -65 -35 -65 -59 0 -23 31
-49 44 -37 3 3 6 0 6 -7 0 -25 50 33 51 59 1 19 3 21 6 8 13 -51 -34 -105 -82
-93 -23 6 -55 50 -55 76 0 23 53 60 84 59 21 -1 25 -3 11 -6z m275 -26 c0 -2
-9 -12 -20 -22 -24 -21 -27 -14 -4 9 15 15 24 20 24 13z m-705 -17 c-3 -5 -39
-10 -78 -10 -50 0 -67 3 -57 10 20 13 143 13 135 0z m98 -7 c-7 -2 -21 -2 -30
0 -10 3 -4 5 12 5 17 0 24 -2 18 -5z m865 -56 c30 -32 30 -133 -1 -170 -43
-50 -340 -307 -362 -313 -13 -3 -32 -4 -44 -2 -17 2 10 30 129 138 83 74 169
152 191 172 40 37 41 39 46 118 3 44 9 80 13 80 3 0 16 -10 28 -23z m-358 -22
c-13 -14 -28 -25 -34 -25 -6 0 3 13 19 29 36 34 48 31 15 -4z m2830 -7 c0 -18
5 -50 11 -71 13 -49 5 -58 -27 -26 -23 24 -24 28 -13 77 12 58 29 69 29 20z
m173 2 c3 -11 1 -20 -5 -20 -5 0 -6 -4 -3 -10 3 -5 2 -10 -3 -10 -5 0 -9 14
-10 30 -1 34 13 40 21 10z m-1613 -258 l0 -259 -59 -56 c-33 -32 -64 -57 -70
-57 -6 0 -15 9 -21 19 -8 16 -1 29 43 77 l52 57 5 216 c4 168 8 221 20 239 8
12 18 22 22 22 5 0 8 -116 8 -258z m-1825 218 c0 -13 -25 -15 -157 -18 -154
-3 -158 -2 -158 18 0 20 4 20 158 18 132 -3 157 -5 157 -18z m1665 -47 c0 -31
-4 -43 -14 -43 -23 0 -25 12 -14 64 12 57 28 45 28 -21z m2307 61 c-3 -3 -12
-4 -19 -1 -8 3 -5 6 6 6 11 1 17 -2 13 -5z m340 -21 c-3 -3 -11 -2 -17 2 -9 6
-9 10 1 16 14 8 27 -7 16 -18z m113 6 c0 -5 -7 -9 -15 -9 -15 0 -20 12 -9 23
8 8 24 -1 24 -14z m-4250 1 c0 -6 -27 -10 -60 -10 -33 0 -60 4 -60 10 0 6 27
10 60 10 33 0 60 -4 60 -10z m2134 -42 c3 -17 6 -121 6 -232 l0 -201 59 -65
58 -65 70 -1 c46 -1 79 -7 93 -17 23 -16 210 -197 210 -203 0 -2 -16 -4 -35
-4 -28 0 -46 11 -97 58 -132 122 -115 112 -196 112 l-74 0 -44 48 c-25 26 -58
67 -75 92 l-31 45 4 225 c2 124 7 231 11 237 12 20 34 4 41 -29z m1316 -10
c78 -72 164 -138 181 -138 10 0 19 -4 19 -10 0 -5 -12 -10 -27 -10 -22 0 -53
24 -133 101 -58 55 -96 96 -85 90 11 -5 31 -20 45 -33z m-172 20 c7 -7 12 -42
12 -86 l0 -74 78 -75 c42 -41 96 -90 120 -110 23 -19 42 -39 42 -44 0 -24 -33
-1 -122 81 -81 76 -101 90 -121 85 -19 -5 -29 0 -46 21 -18 23 -21 40 -21 114
0 48 3 90 7 93 10 11 38 8 51 -5z m-2458 -23 c0 -14 -4 -25 -10 -25 -11 0 -14
33 -3 43 11 11 13 8 13 -18z m-990 -20 c0 -13 -24 -15 -160 -15 -136 0 -160 2
-160 15 0 13 24 15 160 15 136 0 160 -2 160 -15z m175 0 c0 -11 -99 -20 -122
-11 -8 3 -11 11 -8 16 8 14 130 9 130 -5z m317 -98 c-25 -24 -44 -37 -52 -32
-8 5 2 19 31 45 57 49 73 39 21 -13z m1631 -100 c7 4 5 -2 -3 -12 -9 -11 -10
-16 -2 -11 9 5 12 -3 12 -28 0 -22 -5 -36 -12 -36 -9 0 -8 -3 1 -9 17 -11 24
-91 9 -91 -6 0 -4 -8 3 -17 12 -15 12 -16 -1 -8 -13 7 -13 6 -2 -7 13 -16 15
-136 4 -194 l-4 -25 -14 27 c-9 16 -11 31 -6 38 13 17 15 129 3 121 -8 -4 -10
58 -9 202 1 114 4 171 5 125 3 -61 7 -81 16 -75z m1463 117 c39 -33 49 -54 23
-54 -12 0 -89 70 -89 81 0 18 22 8 66 -27z m-643 -64 c-7 -8 -23 24 -22 45 0
15 3 13 13 -10 7 -16 11 -32 9 -35z m-2908 29 c127 -1 239 -5 250 -9 20 -7
-295 -20 -492 -20 -87 0 -113 3 -113 13 0 24 14 29 70 23 30 -3 159 -6 285 -7z
m846 -6 c-5 -10 -21 -29 -35 -42 -35 -33 -34 -6 1 31 30 31 49 37 34 11z m639
6 c0 -6 -21 -31 -47 -55 -36 -32 -56 -44 -78 -43 l-30 1 33 8 c33 8 65 38 56
52 -3 4 2 5 10 2 9 -4 16 -1 16 6 0 7 8 19 18 26 21 16 22 17 22 3z m2650 -9
c0 -5 -20 -10 -45 -10 -25 0 -45 5 -45 10 0 6 20 10 45 10 25 0 45 -4 45 -10z
m110 0 c0 -5 -7 -7 -15 -4 -8 4 -15 8 -15 10 0 2 7 4 15 4 8 0 15 -4 15 -10z
m140 0 c0 -13 -50 -13 -70 0 -11 7 -4 10 28 10 23 0 42 -4 42 -10z m-1833 -15
c0 -8 -4 -12 -9 -9 -5 3 -6 10 -3 15 9 13 12 11 12 -6z m233 -17 c0 -6 -7 -5
-15 2 -8 7 -15 17 -15 22 0 6 7 5 15 -2 8 -7 15 -17 15 -22z m-1690 -24 c-53
-53 -87 -77 -72 -47 11 20 45 51 82 76 39 25 37 20 -10 -29z m845 25 c11 -16
1 -19 -13 -3 -7 8 -8 14 -3 14 5 0 13 -5 16 -11z m1132 -17 c25 -19 380 -351
458 -427 28 -27 37 -38 21 -24 -17 15 -39 31 -49 36 -10 5 -67 57 -125 114
-196 190 -323 304 -355 317 l-32 12 30 -5 c17 -3 40 -14 52 -23z m-1757 13 c0
-2 -11 -10 -24 -17 -23 -13 -128 -105 -266 -234 -36 -34 -87 -81 -114 -105
-27 -24 -59 -54 -71 -65 -12 -12 -32 -25 -45 -29 -16 -5 -19 -9 -10 -15 8 -5
-11 -9 -45 -11 -39 -3 -63 0 -72 9 -7 7 -13 14 -13 16 0 1 29 2 65 3 78 1 86
5 208 121 303 286 387 357 387 327z m1637 -8 c4 -7 19 -21 33 -30 13 -9 18
-17 11 -17 -7 0 -29 14 -48 30 -20 18 -28 30 -19 30 8 0 19 -6 23 -13z m-1031
-19 c-3 -13 -3 -17 0 -10 16 34 24 2 24 -94 0 -81 -3 -109 -15 -121 -14 -14
-15 -12 -10 17 7 42 8 44 5 50 -7 19 -7 39 1 34 5 -3 9 9 9 25 0 17 -4 31 -9
31 -6 0 -8 -9 -6 -20 2 -11 0 -18 -4 -16 -13 8 -14 126 -1 126 7 0 9 -9 6 -22z
m1308 3 c27 -30 9 -47 -20 -20 -13 12 -24 26 -24 31 0 15 27 8 44 -11z m-3264
-10 c0 -16 -43 -21 -182 -21 -116 0 -138 2 -138 15 0 13 24 15 160 15 88 0
160 -4 160 -9z m4420 -6 c0 -5 -4 -10 -10 -9 -5 1 -80 2 -166 3 -96 0 -153 5
-149 11 8 13 325 8 325 -5z m-1830 -19 c0 -17 74 -96 90 -96 6 0 8 -5 5 -10
-3 -6 2 -13 12 -17 10 -3 22 -13 26 -20 5 -7 12 -11 18 -8 5 4 9 1 9 -4 0 -24
-29 -7 -97 57 -66 62 -99 112 -74 112 6 0 11 -6 11 -14z m251 -43 c91 -80 239
-226 239 -235 0 -5 15 -22 33 -38 17 -16 27 -30 21 -30 -6 0 -19 9 -29 20 -10
11 -23 20 -30 20 -28 0 -341 291 -331 308 13 21 32 13 97 -45z m-1501 40 c-8
-3 -73 -58 -144 -122 -278 -250 -326 -291 -337 -291 -6 0 11 17 38 39 27 21
60 51 74 67 13 16 40 41 59 55 19 15 69 60 111 100 126 123 170 158 199 158
13 -1 13 -1 0 -6z m1775 -13 c17 -11 64 -52 105 -93 41 -40 102 -97 135 -127
33 -29 94 -85 135 -125 96 -90 147 -128 165 -121 8 3 17 0 21 -6 4 -7 3 -8 -4
-4 -19 11 -14 -5 6 -20 16 -13 16 -13 -2 -14 -26 0 -98 62 -426 369 -85 78
-163 147 -174 151 -13 6 -15 9 -6 9 8 1 29 -8 45 -19z m-2129 -2 c4 -6 -18
-35 -53 -70 l-61 -58 -69 0 -68 0 -150 -141 c-130 -122 -150 -145 -151 -172
-1 -59 -4 -66 -25 -77 -37 -20 -67 -4 -79 41 -13 48 -10 53 57 91 39 22 172
135 273 232 58 56 78 66 137 66 43 0 53 5 103 50 57 51 74 58 86 38z m1768
-110 c39 -35 46 -46 33 -51 -9 -3 -19 -1 -23 5 -4 7 -3 8 4 4 7 -4 12 -3 12 2
0 5 -20 26 -44 46 -59 48 -106 95 -106 106 0 5 17 -8 38 -29 20 -21 59 -59 86
-83z m1321 62 c0 -24 -2 -25 -77 -28 -69 -3 -78 -1 -88 18 -20 37 0 46 87 40
75 -5 78 -6 78 -30z m-4127 13 c3 -10 -28 -13 -132 -13 -115 0 -136 2 -136 15
0 13 19 15 132 13 94 -2 133 -7 136 -15z m199 0 c24 -10 43 -21 43 -25 0 -12
-61 -19 -130 -16 -63 3 -65 4 -68 31 -3 27 -3 27 55 27 32 0 77 -8 100 -17z
m1492 -9 c-13 -14 -33 -30 -44 -35 -19 -10 -19 -10 0 8 12 10 24 26 28 36 3 9
14 17 23 17 15 0 13 -4 -7 -26z m-1079 -94 c-96 -91 -127 -115 -118 -91 6 18
210 202 217 196 3 -4 -41 -51 -99 -105z m2475 62 c-7 -7 -45 29 -45 41 0 6 11
0 25 -13 14 -13 23 -26 20 -28z m1380 38 c-29 -12 -282 -12 -290 0 -4 7 49 10
152 9 98 0 150 -4 138 -9z m-1955 -97 c0 -53 -2 -94 -4 -92 -8 9 -13 189 -5
189 5 0 9 -44 9 -97z m941 26 c13 -26 7 -24 -22 7 -17 19 -19 23 -6 18 10 -3
22 -15 28 -25z m-1866 2 c7 -12 -22 -41 -42 -41 -13 0 -11 6 8 24 29 29 27 28
34 17z m-293 -165 c-71 -70 -140 -134 -153 -143 -13 -9 -42 -33 -64 -53 -41
-38 -85 -60 -85 -41 0 5 8 12 18 15 23 8 82 64 111 105 29 40 91 98 169 158
31 24 64 50 73 57 22 18 53 35 57 32 1 -2 -55 -60 -126 -130z m1404 82 c65
-69 76 -88 33 -58 -42 29 -109 91 -109 102 0 21 31 3 76 -44z m553 -13 c65
-70 50 -71 -26 -1 -18 16 -33 34 -33 38 0 18 20 6 59 -37z m-364 25 c3 -5 65
-63 137 -127 71 -65 147 -133 167 -151 l36 -33 -35 23 c-19 12 -71 57 -116 98
-107 100 -153 140 -191 166 -18 12 -29 24 -26 28 9 9 21 7 28 -4z m93 -124
c24 -20 41 -36 38 -36 -7 0 71 -71 104 -93 66 -46 95 -61 124 -62 17 0 54 -2
81 -4 45 -2 47 -4 21 -11 -16 -5 -57 -8 -91 -6 -60 2 -67 5 -122 51 -93 79
-313 277 -313 282 0 5 92 -65 158 -121z m-958 83 c0 -14 -46 -66 -136 -153
-75 -72 -144 -134 -153 -138 -21 -9 -412 -8 -476 1 -46 6 -41 8 59 15 59 4
156 7 215 6 216 -5 183 -18 336 133 74 73 135 138 135 145 0 7 5 12 10 12 6 0
10 -9 10 -21z m2460 -35 c0 -11 -20 -14 -107 -14 -60 0 -115 5 -123 10 -19 12
-24 11 105 19 121 7 125 6 125 -15z m-4400 6 c0 -6 -52 -11 -132 -11 -73 -1
-151 -2 -172 -3 -23 -1 -41 4 -43 12 -4 9 35 12 171 12 111 0 176 -4 176 -10z
m139 -6 c2 -2 -17 -4 -42 -4 -26 0 -47 4 -47 9 0 8 79 3 89 -5z m1481 8 c0 -5
-23 -9 -50 -9 -48 -1 -54 -4 -115 -62 -35 -33 -67 -61 -72 -62 -40 -5 -176 -3
-179 3 -3 4 22 9 55 9 34 1 74 2 89 3 27 1 100 54 146 105 15 16 31 21 73 21
29 0 53 -4 53 -8z m-30 -42 c0 -5 -8 -10 -17 -10 -15 0 -16 2 -3 10 19 12 20
12 20 0z m681 -87 c32 -31 59 -60 59 -65 0 -12 -117 90 -124 108 -9 24 4 16
65 -43z m-1689 10 c-12 -2 -20 -9 -17 -14 4 -5 2 -9 -3 -9 -16 0 -23 -30 -12
-51 12 -22 58 -26 66 -5 8 20 34 29 34 11 0 -23 -38 -55 -65 -55 -14 0 -34 9
-45 20 -11 11 -20 31 -20 45 0 32 33 65 63 64 l22 -2 -23 -4z m1388 -221 l0
-229 -97 -86 c-131 -114 -160 -146 -168 -184 -6 -32 -7 -33 -35 -18 -22 11
-64 15 -165 15 -83 0 -135 4 -135 10 0 6 53 10 140 10 l140 0 0 29 c0 24 5 29
33 35 23 4 58 33 130 106 l97 101 0 180 c0 168 1 183 23 219 12 22 25 40 30
40 4 0 7 -103 7 -228z m877 189 c35 -28 47 -59 16 -42 -27 15 -73 60 -73 72 0
12 12 5 57 -30z m973 29 c0 -5 -20 -10 -45 -10 -25 0 -45 5 -45 10 0 6 20 10
45 10 25 0 45 -4 45 -10z m580 0 c0 -7 -87 -10 -260 -10 -143 0 -260 3 -260 8
0 4 117 9 260 10 175 2 260 -1 260 -8z m-4220 -70 c0 -6 -90 -10 -249 -10
-137 0 -256 -3 -265 -6 -11 -4 -16 -1 -16 10 0 14 28 16 265 16 170 0 265 -4
265 -10z m3795 0 c4 -7 -40 -9 -127 -8 -92 1 -119 3 -88 8 71 11 208 11 215 0z
m125 1 c0 -17 -18 -22 -59 -15 -57 9 -51 24 9 24 28 0 50 -4 50 -9z m110 0 c0
-6 -5 -13 -10 -16 -15 -9 -43 3 -35 15 8 13 45 13 45 1z m185 -1 c4 -6 -22
-10 -70 -10 -48 0 -74 4 -70 10 3 6 35 10 70 10 35 0 67 -4 70 -10z m-964 -20
c4 0 16 -14 24 -31 15 -28 15 -33 0 -55 -8 -13 -25 -24 -36 -24 -21 0 -79 50
-79 69 0 16 52 52 68 46 7 -3 18 -5 23 -5z m-3516 -50 c0 -12 -23 -15 -132
-18 -111 -2 -133 0 -133 12 0 22 14 24 145 22 99 -1 120 -4 120 -16z m2505 0
c0 -5 -7 -10 -15 -10 -8 0 -15 5 -15 10 0 6 7 10 15 10 8 0 15 -4 15 -10z
m1397 -6 c-3 -3 -12 -4 -19 -1 -8 3 -5 6 6 6 11 1 17 -2 13 -5z m560 -4 c-41
-12 -479 -12 -497 0 -10 6 74 9 255 9 164 0 259 -4 242 -9z m-992 -60 c3 -5 2
-10 -4 -10 -5 0 -13 5 -16 10 -3 6 -2 10 4 10 5 0 13 -4 16 -10z m-2930 -72
c0 -10 -86 -13 -398 -13 -220 0 -401 3 -404 8 -2 4 -2 11 1 15 3 4 184 7 403
5 310 -2 398 -6 398 -15z m426 12 c53 0 65 -14 22 -25 -37 -9 -393 5 -393 16
0 9 175 18 264 12 32 -1 81 -3 107 -3z m635 -18 c-7 -11 -451 -5 -476 6 -8 4
93 9 225 12 132 3 244 2 249 -2 4 -3 6 -11 2 -16z m792 11 c-4 -24 -78 -32
-78 -9 0 17 15 24 53 25 22 1 28 -3 25 -16z m108 6 c10 -17 -13 -36 -27 -22
-12 12 -4 33 11 33 5 0 12 -5 16 -11z m499 -9 c0 -13 -32 -15 -209 -15 -152 0
-210 3 -213 12 -6 16 27 18 242 18 151 -1 180 -3 180 -15z m1480 0 c0 -13 -48
-15 -380 -12 -209 1 -396 6 -415 10 -35 7 380 18 650 17 122 0 145 -2 145 -15z
m-2705 -6 c0 -2 -12 -4 -26 -4 -14 0 -23 4 -20 9 6 8 46 4 46 -5z m1620 6 c15
-5 -28 -8 -112 -9 -86 -1 -138 3 -138 9 0 12 213 12 250 0z m187 4 c-3 -3 -12
-4 -19 -1 -8 3 -5 6 6 6 11 1 17 -2 13 -5z m56 -1 c-7 -2 -19 -2 -25 0 -7 3
-2 5 12 5 14 0 19 -2 13 -5z m-3733 -58 c0 -12 -16 -15 -85 -15 -69 0 -85 3
-85 15 0 12 16 15 85 15 69 0 85 -3 85 -15z m190 0 c0 -13 -11 -15 -62 -13
-38 2 -63 8 -66 16 -3 9 14 12 62 12 53 0 66 -3 66 -15z m2260 -25 c0 -5 -4
-10 -9 -10 -6 0 -13 5 -16 10 -3 6 1 10 9 10 9 0 16 -4 16 -10z m-2255 -50 c4
-7 -58 -10 -179 -10 -117 0 -186 4 -186 10 0 14 357 14 365 0z m515 0 c0 -6
-80 -10 -221 -10 -144 0 -218 3 -214 10 4 6 88 10 221 10 136 0 214 -4 214
-10z m246 -1 c3 -5 -40 -9 -96 -9 -68 0 -99 3 -95 10 8 13 183 11 191 -1z
m255 2 c-8 -5 -20 -7 -28 -4 -21 8 -15 13 15 13 20 0 23 -3 13 -9z m49 -1 c12
-8 11 -10 -7 -10 -13 0 -23 5 -23 10 0 13 11 13 30 0z m416 -8 c-2 -4 -42 -5
-88 -2 l-83 5 80 5 c82 5 98 4 91 -8z m108 -3 c-7 -12 -61 -12 -68 0 -8 13 11
18 45 13 16 -2 26 -8 23 -13z m1034 9 c7 -7 12 -16 12 -21 0 -5 -7 -1 -16 7
-17 18 -79 22 -89 6 -7 -12 -25 -4 -25 11 0 13 104 11 118 -3z m567 2 c4 -6
-44 -10 -137 -10 -79 0 -160 -3 -180 -6 -31 -5 -38 -4 -38 10 0 14 20 16 174
16 106 0 177 -4 181 -10z m993 -2 c-3 -7 -19 -13 -36 -12 -18 0 -209 1 -424 2
-258 2 -388 6 -378 12 9 6 179 10 428 10 327 0 413 -3 410 -12z m-4135 -5 c-7
-2 -19 -2 -25 0 -7 3 -2 5 12 5 14 0 19 -2 13 -5z m1122 -3 c-3 -5 -12 -7 -20
-3 -21 7 -19 13 6 13 11 0 18 -4 14 -10z m1086 -13 c-13 -13 -26 -3 -16 12 3
6 11 8 17 5 6 -4 6 -10 -1 -17z m389 -46 c0 -10 -9 -21 -20 -24 -19 -5 -19 -4
-2 19 21 29 22 29 22 5z m1737 -3 c-3 -10 -169 -14 -775 -15 -677 -2 -772 -1
-772 12 0 13 96 15 776 15 616 0 775 -3 771 -12z m-3227 -8 c0 -14 -1506 -14
-1515 0 -4 7 250 10 754 10 501 0 761 -3 761 -10z m1050 -19 c0 -11 -65 -62
-104 -81 -37 -18 -45 -57 -21 -94 23 -34 15 -75 -17 -99 -53 -39 -111 9 -94
77 5 19 19 33 49 46 23 10 36 19 29 19 -22 2 4 36 69 90 57 48 89 63 89 42z
m320 -5 c0 -6 -140 -140 -156 -149 -13 -8 -13 -6 -2 14 23 40 61 79 107 109
45 30 51 33 51 26z m-2081 -45 c85 -1 151 -4 148 -7 -7 -7 -882 -12 -929 -6
-15 3 -26 8 -23 12 3 5 150 7 328 5 177 -2 391 -4 476 -4z m1036 0 c5 -1 4 -6
-2 -12 -12 -12 -307 -3 -299 10 3 4 220 6 301 2z m-767 -8 c-16 -2 -40 -2 -55
0 -16 2 -3 4 27 4 30 0 43 -2 28 -4z m99 1 c-3 -3 -12 -4 -19 -1 -8 3 -5 6 6
6 11 1 17 -2 13 -5z m310 0 c-7 -7 -269 -6 -276 1 -2 3 60 5 139 5 79 0 141
-3 137 -6z m1771 -61 c2 -9 -7 -13 -27 -13 -30 0 -39 9 -24 24 11 10 46 3 51
-11z m-3078 -11 c0 -6 -149 -7 -175 -2 -5 1 3 5 19 9 34 7 156 2 156 -7z m630
-1 c0 -7 -105 -7 -120 0 -8 4 104 15 113 11 4 -2 7 -7 7 -11z m100 4 c0 -8 -7
-15 -15 -15 -16 0 -20 12 -8 23 11 12 23 8 23 -8z m259 5 c112 0 60 -10 -84
-15 -128 -6 -137 -5 -124 11 11 14 25 15 79 10 36 -3 94 -6 129 -6z m1911 0
c0 -5 -13 -10 -30 -10 -16 0 -30 5 -30 10 0 6 14 10 30 10 17 0 30 -4 30 -10z
m755 0 c-8 -13 -525 -12 -525 1 0 5 118 9 266 9 182 0 263 -3 259 -10z m410 0
c-4 -6 -57 -10 -125 -10 -68 0 -121 4 -125 10 -4 6 40 10 125 10 85 0 129 -4
125 -10z m-3920 -10 c-3 -5 -10 -10 -16 -10 -5 0 -9 5 -9 10 0 6 7 10 16 10 8
0 12 -4 9 -10z m165 0 c0 -10 -86 -8 -97 3 -3 4 17 7 45 7 29 0 52 -4 52 -10z
m130 0 c0 -5 -4 -10 -10 -10 -5 0 -10 5 -10 10 0 6 5 10 10 10 6 0 10 -4 10
-10z m2087 -72 c-3 -7 -5 -2 -5 12 0 14 2 19 5 13 2 -7 2 -19 0 -25z m-2561 1
c3 -5 -29 -9 -70 -9 -46 0 -76 4 -76 10 0 13 138 11 146 -1z m61 5 c-3 -3 -12
-4 -19 -1 -8 3 -5 6 6 6 11 1 17 -2 13 -5z m603 -4 c0 -6 -97 -10 -270 -10
-173 0 -270 4 -270 10 0 6 97 10 270 10 173 0 270 -4 270 -10z m245 0 c-3 -5
-46 -10 -96 -10 -53 0 -89 4 -89 10 0 6 39 10 96 10 61 0 93 -4 89 -10z m645
0 c0 -6 -67 -10 -180 -10 -113 0 -180 4 -180 10 0 6 67 10 180 10 113 0 180
-4 180 -10z m1380 0 c0 -5 -13 -10 -30 -10 -16 0 -30 5 -30 10 0 6 14 10 30
10 17 0 30 -4 30 -10z m970 0 c0 -6 -90 -10 -249 -10 -156 0 -252 4 -256 10
-4 7 82 10 249 10 164 0 256 -4 256 -10z m490 0 c0 -6 -85 -10 -230 -10 -139
0 -230 4 -230 10 0 5 92 9 230 9 145 1 230 -3 230 -9z m210 0 c0 -6 -37 -10
-90 -10 -53 0 -90 4 -90 10 0 6 37 10 90 10 53 0 90 -4 90 -10z m-4680 -80
c-20 -13 -57 -13 -65 0 -4 6 11 10 37 10 31 0 39 -3 28 -10z m550 1 c0 -10
-140 -20 -146 -10 -8 14 13 19 78 19 37 0 68 -4 68 -9z m118 -3 c-3 -7 -13
-13 -23 -13 -10 0 -20 6 -22 13 -3 7 5 12 22 12 17 0 25 -5 23 -12z m577 2 c4
-7 -82 -10 -249 -10 -164 0 -256 4 -256 10 0 14 497 14 505 0z m60 0 c3 -5 1
-10 -4 -10 -6 0 -11 5 -11 10 0 6 2 10 4 10 3 0 8 -4 11 -10z m155 0 c-8 -5
-42 -10 -75 -10 -42 0 -56 3 -45 10 8 5 42 10 75 10 42 0 56 -3 45 -10z m120
0 c0 -5 -9 -10 -19 -10 -11 0 -23 5 -26 10 -4 6 5 10 19 10 14 0 26 -4 26 -10z
m1670 0 c0 -5 -20 -11 -45 -11 -25 -1 -50 -2 -57 -3 -6 -1 -13 5 -15 12 -4 9
12 12 56 12 34 0 61 -4 61 -10z m80 0 c0 -5 -9 -10 -21 -10 -11 0 -17 5 -14
10 3 6 13 10 21 10 8 0 14 -4 14 -10z m300 0 c0 -6 -53 -10 -140 -10 -87 0
-140 4 -140 10 0 6 53 10 140 10 87 0 140 -4 140 -10z m280 0 c0 -6 -48 -10
-125 -10 -77 0 -125 4 -125 10 0 6 48 10 125 10 77 0 125 -4 125 -10z m60 0
c0 -5 -9 -10 -21 -10 -11 0 -17 5 -14 10 3 6 13 10 21 10 8 0 14 -4 14 -10z
m495 0 c-4 -6 -90 -10 -226 -10 -139 0 -219 4 -219 10 0 6 82 10 226 10 147 0
223 -3 219 -10z m-4247 -7 c-10 -2 -26 -2 -35 0 -10 3 -2 5 17 5 19 0 27 -2
18 -5z m3480 -80 c-15 -2 -42 -2 -60 0 -18 2 -6 4 27 4 33 0 48 -2 33 -4z
m-705 -10 c-7 -2 -21 -2 -30 0 -10 3 -4 5 12 5 17 0 24 -2 18 -5z m-2855 -38
c3 -3 -43 -5 -102 -5 -59 0 -105 3 -103 8 6 8 196 6 205 -3z m67 5 c3 -5 -1
-10 -9 -10 -9 0 -16 5 -16 10 0 6 4 10 9 10 6 0 13 -4 16 -10z m155 1 c0 -14
-18 -23 -30 -16 -6 4 -8 11 -5 16 8 12 35 12 35 0z m108 -3 c-5 -15 -33 -22
-54 -14 -24 9 -6 26 27 26 20 0 29 -4 27 -12z m282 -3 c0 -13 -18 -15 -122
-13 -86 2 -123 7 -126 16 -3 9 26 12 122 12 106 0 126 -2 126 -15z m60 5 c0
-5 -4 -10 -10 -10 -5 0 -10 5 -10 10 0 6 5 10 10 10 6 0 10 -4 10 -10z m3860
-5 c0 -8 -4 -15 -9 -15 -13 0 -22 16 -14 24 11 11 23 6 23 -9z m-127 -2 c-13
-2 -33 -2 -45 0 -13 2 -3 4 22 4 25 0 35 -2 23 -4z m-4757 -82 c-21 -39 -20
-43 7 -39 18 2 22 10 23 36 0 18 7 38 15 43 23 15 29 10 19 -15 -5 -13 -6 -33
-3 -44 3 -14 -4 -29 -21 -46 -30 -31 -43 -32 -75 -7 -26 20 -28 10 26 98 21
36 29 14 9 -26z"/>
<path d="M1820 4981 c0 -5 12 -24 26 -41 24 -28 28 -30 42 -16 9 9 14 17 11
18 -2 2 -18 13 -36 26 -35 24 -43 27 -43 13z"/>
<path d="M2982 4993 c-12 -10 -24 -35 -28 -55 -5 -33 -4 -38 13 -38 11 0 23 3
27 8 4 4 17 7 29 7 30 0 45 50 21 76 -21 24 -36 24 -62 2z"/>
<path d="M4890 4236 c-40 -40 36 -95 88 -63 16 11 16 52 -1 65 -16 14 -73 12
-87 -2z"/>
<path d="M1988 3204 c-54 -16 -125 -80 -151 -137 -70 -147 -26 -311 104 -382
47 -26 64 -30 134 -30 70 0 86 4 128 28 50 30 103 94 124 150 6 18 12 64 12
104 1 62 -3 80 -31 134 -64 122 -188 174 -320 133z"/>
<path d="M3060 3205 c-62 -19 -123 -74 -154 -137 -36 -72 -37 -189 -2 -263 85
-183 333 -209 451 -47 82 113 71 285 -26 381 -69 69 -177 96 -269 66z"/>
<path d="M1918 2404 c17 -30 155 -135 224 -169 147 -76 369 -107 596 -85 202
19 288 46 412 130 62 42 163 130 156 137 -2 2 -35 -12 -72 -31 -138 -70 -337
-114 -559 -123 -246 -10 -492 33 -670 116 -48 23 -90 41 -92 41 -2 0 0 -7 5
-16z"/>
<path d="M946 1087 c-23 -17 -17 -51 8 -55 22 -5 46 22 46 50 0 21 -28 24 -54
5z"/>
</g>
</svg>
